<?xml version="1.0" encoding="UTF-8" standalone="no"?>
<svg
   xmlns:osb="http://www.openswatchbook.org/uri/2009/osb"
   xmlns:dc="http://purl.org/dc/elements/1.1/"
   xmlns:cc="http://creativecommons.org/ns#"
   xmlns:rdf="http://www.w3.org/1999/02/22-rdf-syntax-ns#"
   xmlns:svg="http://www.w3.org/2000/svg"
   xmlns="http://www.w3.org/2000/svg"
   xmlns:sodipodi="http://sodipodi.sourceforge.net/DTD/sodipodi-0.dtd"
   xmlns:inkscape="http://www.inkscape.org/namespaces/inkscape"
   version="1.1"
   x="0"
   y="0"
   width="512"
   height="512"
   viewBox="0 0 512 512"
   id="svg4167"
   inkscape:version="1.0.1 (3bc2e813f5, 2020-09-07)"
   sodipodi:docname="tombola-draw-207.svg"
   inkscape:export-filename="F:\Users\Geir\OneDrive\Documents\Development\Progressive Web App\images\red-top-hat_sm.png"
   inkscape:export-xdpi="33.75"
   inkscape:export-ydpi="33.75">
  <metadata
     id="metadata4208">
    <rdf:RDF>
      <cc:Work
         rdf:about="">
        <dc:format>image/svg+xml</dc:format>
        <dc:type
           rdf:resource="http://purl.org/dc/dcmitype/StillImage" />
        <dc:title />
      </cc:Work>
    </rdf:RDF>
  </metadata>
  <sodipodi:namedview
     pagecolor="#ffffff"
     bordercolor="#666666"
     borderopacity="1"
     objecttolerance="10"
     gridtolerance="10"
     guidetolerance="10"
     inkscape:pageopacity="0"
     inkscape:pageshadow="2"
     inkscape:window-width="1303"
     inkscape:window-height="1070"
     id="namedview4206"
     showgrid="false"
     inkscape:zoom="0.90509668"
     inkscape:cx="243.91484"
     inkscape:cy="288.72953"
     inkscape:window-x="549"
     inkscape:window-y="37"
     inkscape:window-maximized="0"
     inkscape:current-layer="Top_Hat_Red"
     showguides="false"
     inkscape:document-rotation="0" />
  <defs
     id="defs4169">
    <linearGradient
       id="linearGradient8037"
       osb:paint="solid">
      <stop
         style="stop-color:#006680;stop-opacity:1;"
         offset="0"
         id="stop8035" />
    </linearGradient>
  </defs>
  <g
     id="Top_Hat_Red"
     transform="matrix(0.57788343,0,0,-0.56646551,183.83446,424.48143)"
     style="display:inline">
    <path
       style="opacity:1;fill:none;fill-opacity:1;stroke:#ffffff;stroke-width:1.95338;stroke-miterlimit:4;stroke-dasharray:none;stroke-opacity:1"
       id="path8031"
       transform="scale(1,-1)"
       sodipodi:type="arc"
       sodipodi:cx="111.59185"
       sodipodi:cy="-279.31738"
       sodipodi:rx="352.0712"
       sodipodi:ry="345.37808"
       sodipodi:start="6.2712975"
       sodipodi:end="6.2706647"
       d="M 463.63817,-283.42307 A 352.0712,345.37808 0 0 1 115.8328,66.035641 352.0712,345.37808 0 0 1 -240.45313,-275.10242 352.0712,345.37808 0 0 1 107.23951,-624.66907 352.0712,345.37808 0 0 1 463.63545,-283.64161 l -352.0436,4.32423 z"
       sodipodi:arc-type="slice" />
    <rect
       style="opacity:1;fill:#006680;fill-opacity:1;stroke:#006680;stroke-width:1.74781;stroke-miterlimit:4;stroke-dasharray:none;stroke-opacity:1"
       id="rect8033"
       width="889.03271"
       height="908.90283"
       x="-316.17639"
       y="-748.34656"
       transform="scale(1,-1)" />
    <path
       inkscape:connector-curvature="0"
       id="rect4752"
       d="m 216.1991,402.33478 c -43.32211,16.06333 -86.64418,32.12665 -129.966273,48.18996 32.231443,60.8855 64.462913,121.77102 96.694393,182.65656 43.32209,-16.06335 86.64418,-32.12668 129.96629,-48.18993 C 280.66207,524.10579 248.43057,463.22032 216.1991,402.33478 Z"
       style="opacity:1;fill:#ffffff;fill-opacity:1;stroke:none;stroke-width:10.9299;stroke-miterlimit:4;stroke-dasharray:none;stroke-opacity:1" />
    <g
       id="path4384"
       transform="matrix(0.61824121,0,0,0.5865788,-186.854,-81.261214)"
       style="fill:#ffffff;stroke:none">
      <path
         style="fill:#ffffff;stroke:none"
         d="M 174.392,575.803 C 110.08436,572.53117 27.712749,596.98797 11.753299,667.91935 -3.9982544,746.22687 69.309901,812.19187 141.03918,824.77963 271.54936,850.07865 399.27499,786.05858 505.68928,716.78508 659.88358,612.85021 715.01783,555.04385 829.41571,474.49607 c 43.83043,-22.13706 113.12346,-29.42895 140.91231,20.47119 25.9438,51.25246 -36.97984,-16.75277 -65.14408,5.89758 -84.65071,24.55608 -147.37235,91.56824 -218.03647,140.72512 -11.90591,12.34583 -120.829,74.80737 -85.53747,58.18305 103.85485,0.15613 221.24876,1.84474 314.908,-49.12324 75.65126,-55.2531 83.3839,-99.79226 49.72095,-150.95963 C 930.46167,453.97398 867.837,475.48459 819.311,480.857 789.1883,328.52328 777.17518,246.82294 773.47672,91.638249 770.38424,40.099141 776.97268,21.070225 746.05715,15.398556 699.43848,6.8460365 617.82686,11.869329 569.79994,13.115355 410.82952,24.711815 256.10576,34.910039 105.70054,90.785167 71.202559,103.52655 78.192664,125.49449 101.43573,224.24114 c 27.87417,115.7949 45.40564,233.71664 62.06817,351.54586 3.62937,0.005 7.25873,0.0107 10.8881,0.016 z"
         id="path4189"
         inkscape:connector-curvature="0"
         sodipodi:nodetypes="cccccccccccccsccccc" />
      <path
         style="fill:#ffffff;fill-opacity:0;stroke:none;stroke-width:7.99971;stroke-linejoin:round;stroke-miterlimit:4;stroke-dasharray:none"
         d="M 165.40932,578.57989 C 102.75488,575.25405 22.405701,600.38348 8.7229203,670.06168 -4.8207133,748.55292 69.324267,812.63061 140.85373,825.03829 275.26745,850.39236 405.97589,782.91589 514.73459,710.78275 625.7755,640.27529 717.18028,542.97296 829.41571,474.49607 c 43.83043,-22.13706 113.12346,-29.42895 140.91231,20.47119 25.9438,51.25246 -36.97984,-16.75277 -65.14408,5.89758 -84.65071,24.55608 -147.37235,91.56824 -218.03647,140.72512 -11.90591,12.34583 -114.30846,74.96095 -79.01693,58.33663 103.85485,0.15613 214.72822,1.69116 308.38746,-49.27682 50.91142,-26.98972 83.3839,-99.79226 49.72095,-150.95963 C 930.46167,453.97398 867.837,475.48459 819.311,480.857 791.58534,333.03766 772.81782,190.52372 770.38424,40.099141 764.94845,-3.9953149 663.78896,7.9220367 608.27888,10.59686 446.39933,19.592752 281.30749,33.729661 125.97808,82.405725 67.744675,90.522882 70.701323,120.6469 91.604571,192.64247 125.5404,323.0485 145.69351,445.40904 165.40932,578.57989 Z"
         id="path4191"
         inkscape:connector-curvature="0"
         sodipodi:nodetypes="ccccccccccccccccc" />
    </g>
    <path
       style="fill:#ffffff;fill-opacity:0;stroke:none;stroke-width:4.83286"
       d="m -84.596049,330.30896 c 84.82110191,7.41767 173.496985,6.3857 253.711659,-23.99734 41.89116,-32.47737 83.78231,-64.95473 125.67347,-97.43209 -90.72926,30.75835 -185.87619,49.80053 -282.290115,52.07209 -32.322685,1.40403 -64.67578,2.03373 -97.027055,2.4411 -0.855079,22.29287 -0.252875,44.61551 -0.06796,66.91624 z"
       id="path4197"
       inkscape:connector-curvature="0" />
    <g
       id="path4392"
       transform="matrix(0.61822543,0,0,0.59031154,-186.8462,-84.370084)"
       style="fill:#ffffff;stroke:none">
      <path
         style="fill:#ffffff;stroke:none"
         d="m 303.38649,814.9611 c 109.3522,-36.04353 225.7403,-112.1673 321.07077,-182.21755 83.57755,-67.03411 156.47313,-161.17822 265.92868,-178.58347 75.95151,-2.78539 100.48228,75.2577 93.46792,110.57073 -6.5832,33.49935 -132.76044,-37.7419 -132.76044,-37.7419 C 740.73901,593.7477 637.15799,695.10084 515.78308,744.1351 449.72614,773.74252 371.071,801.05194 303.38649,814.9611 Z"
         id="path4200"
         inkscape:connector-curvature="0"
         sodipodi:nodetypes="ccccccc" />
      <path
         style="fill:#ffffff;fill-opacity:0;stroke:none;stroke-width:8;stroke-linecap:round"
         d="M 317.303,810.831 C 429.74776,771.48339 529.12679,702.7938 624.45726,632.74355 704.16911,564.0574 780.15725,474.86941 889.6128,457.46416 c 78.07764,-12.90414 98.74272,69.26908 90.37536,97.35442 C 954.84961,509.84607 884.30224,501.72951 843.74859,526.5759 733.39418,593.33469 644.11625,692.62278 522.74134,741.65704 456.6844,771.26446 387.30693,792.79175 317.303,810.831 Z"
         id="path4202"
         inkscape:connector-curvature="0"
         sodipodi:nodetypes="ccccccc" />
    </g>
    <path
       style="opacity:1;fill:#999999;fill-opacity:1;stroke:none;stroke-width:3.18141;stroke-miterlimit:4;stroke-dasharray:none;stroke-opacity:1"
       d="m 346.58733,210.74011 c -38.84103,16.76576 -69.40242,47.0475 -104.31238,70.05694 -16.79992,12.50836 -34.16275,24.26036 -51.75088,35.68536 60.8615,-0.70519 124.93278,-1.06831 180.98566,-27.01868 26.37172,-11.77746 54.95507,-50.77398 29.56579,-75.4889 -14.97118,-13.02792 -37.24148,-8.56787 -54.48819,-3.23472 z"
       id="path4842"
       inkscape:connector-curvature="0" />
    <path
       style="opacity:1;fill:#333333;fill-opacity:1;stroke:none;stroke-width:1.91579;stroke-miterlimit:4;stroke-dasharray:none;stroke-opacity:1"
       d="m -85.769143,252.95257 c 3.604465,24.17637 3.844917,49.2705 5.373209,74.13466 80.17712491,7.35078 163.245176,7.17117 240.151394,-25.25993 34.25568,-21.47801 55.35055,-35.81285 89.64978,-59.33706 13.71138,-8.42014 92.71578,-60.62988 63.10299,-46.68442 l -53.78121,16.62454 C 141.37716,246.53454 1.8900429,252.61674 -85.769143,252.95257 Z"
       id="path8041"
       inkscape:connector-curvature="0"
       sodipodi:nodetypes="ccccccc" />
  </g>
</svg>
