<?xml version="1.0" encoding="UTF-8" standalone="no"?><svg xmlns:osb="http://www.openswatchbook.org/uri/2009/osb" xmlns:dc="http://purl.org/dc/elements/1.1/" xmlns:cc="http://creativecommons.org/ns#" xmlns:rdf="http://www.w3.org/1999/02/22-rdf-syntax-ns#" xmlns:svg="http://www.w3.org/2000/svg" xmlns="http://www.w3.org/2000/svg" xmlns:sodipodi="http://sodipodi.sourceforge.net/DTD/sodipodi-0.dtd" xmlns:inkscape="http://www.inkscape.org/namespaces/inkscape" version="1.1" x="0" y="0" width="512" height="512" viewBox="0 0 512 512" id="svg4167" inkscape:version="1.0.1 (3bc2e813f5, 2020-09-07)" sodipodi:docname="tombola-draw-208.svg" inkscape:export-filename="F:\Users\Geir\OneDrive\Documents\Development\Progressive Web App\images\red-top-hat_sm.png" inkscape:export-xdpi="33.75" inkscape:export-ydpi="33.75"><metadata id="metadata4208"><rdf:RDF><cc:Work rdf:about=""><dc:format>image/svg+xml</dc:format><dc:type rdf:resource="http://purl.org/dc/dcmitype/StillImage" /><dc:title /></cc:Work></rdf:RDF></metadata><sodipodi:namedview pagecolor="#ffffff" bordercolor="#666666" borderopacity="1" objecttolerance="10" gridtolerance="10" guidetolerance="10" inkscape:pageopacity="0" inkscape:pageshadow="2" inkscape:window-width="1637" inkscape:window-height="1070" id="namedview4206" showgrid="false" inkscape:zoom="0.64" inkscape:cx="144.38087" inkscape:cy="218.12576" inkscape:window-x="215" inkscape:window-y="37" inkscape:window-maximized="0" inkscape:current-layer="Top_Hat_Red" showguides="false" inkscape:document-rotation="0" /><defs id="defs4169"><linearGradient id="linearGradient8037" osb:paint="solid"><stop style="stop-color:#006680;stop-opacity:1;" offset="0" id="stop8035" /></linearGradient></defs><g id="Top_Hat_Red" transform="matrix(0.57788343,0,0,-0.56646551,183.83446,424.48143)" style="display:inline"><path style="opacity:1;fill:none;fill-opacity:1;stroke:#ffffff;stroke-width:1.95338;stroke-miterlimit:4;stroke-dasharray:none;stroke-opacity:1" id="path8031" transform="scale(1,-1)" sodipodi:type="arc" sodipodi:cx="111.59185" sodipodi:cy="-279.31738" sodipodi:rx="352.0712" sodipodi:ry="345.37808" sodipodi:start="6.2712975" sodipodi:end="6.2706647" d="M 463.63817,-283.42307 A 352.0712,345.37808 0 0 1 115.8328,66.035641 352.0712,345.37808 0 0 1 -240.45313,-275.10242 352.0712,345.37808 0 0 1 107.23951,-624.66907 352.0712,345.37808 0 0 1 463.63545,-283.64161 l -352.0436,4.32423 z" sodipodi:arc-type="slice" /><rect style="opacity:1;fill:#006680;fill-opacity:1;stroke:#006680;stroke-width:1.74781;stroke-miterlimit:4;stroke-dasharray:none;stroke-opacity:1" id="rect8033" width="889.03271" height="908.90283" x="-316.17639" y="-748.34656" transform="scale(1,-1)" /><path inkscape:connector-curvature="0" id="rect4752" d="m 209.57972,388.27669 c -42.00008,19.37583 -84.00011,38.75164 -126.000165,58.12744 36.674235,58.21035 73.348505,116.42072 110.022785,174.6311 42.00005,-19.37584 84.00011,-38.75167 126.00019,-58.12741 C 282.92828,504.69739 246.25399,446.48707 209.57972,388.27669 Z" style="opacity:1;fill:#ffffff;fill-opacity:1;stroke:none;stroke-width:10.9299;stroke-miterlimit:4;stroke-dasharray:none;stroke-opacity:1" /><g id="path4384" transform="matrix(0.61824121,0,0,0.5865788,-186.854,-81.261214)" style="fill:#ffffff;stroke:none"><path style="fill:#ffffff;stroke:none" d="M 174.392,575.803 C 110.08436,572.53117 27.712749,596.98797 11.753299,667.91935 -3.9982544,746.22687 69.309901,812.19187 141.03918,824.77963 271.54936,850.07865 399.27499,786.05858 505.68928,716.78508 659.88358,612.85021 715.01783,555.04385 829.41571,474.49607 c 43.83043,-22.13706 113.12346,-29.42895 140.91231,20.47119 25.9438,51.25246 -36.97984,-16.75277 -65.14408,5.89758 -84.65071,24.55608 -147.37235,91.56824 -218.03647,140.72512 -11.90591,12.34583 -120.829,74.80737 -85.53747,58.18305 103.85485,0.15613 221.24876,1.84474 314.908,-49.12324 75.65126,-55.2531 83.3839,-99.79226 49.72095,-150.95963 C 930.46167,453.97398 863.9714,476.31587 815.4454,481.68828 791.50766,326.86073 777.17518,246.82294 773.47672,91.638249 770.38424,40.099141 776.97268,21.070225 746.05715,15.398556 699.43848,6.8460365 617.82686,11.869329 569.79994,13.115355 410.82952,24.711815 256.10576,34.910039 105.70054,90.785167 61.92512,115.16441 75.100184,130.48215 101.43573,224.24114 c 27.87417,115.7949 45.40564,233.71664 62.06817,351.54586 3.62937,0.005 7.25873,0.0107 10.8881,0.016 z" id="path4189" inkscape:connector-curvature="0" sodipodi:nodetypes="cccccccccccccsccccc" /><path style="fill:#ffffff;fill-opacity:0;stroke:none;stroke-width:7.99971;stroke-linejoin:round;stroke-miterlimit:4;stroke-dasharray:none" d="M 165.40932,578.57989 C 102.75488,575.25405 22.405701,600.38348 8.7229203,670.06168 -4.8207133,748.55292 69.324267,812.63061 140.85373,825.03829 275.26745,850.39236 405.97589,782.91589 514.73459,710.78275 625.7755,640.27529 717.18028,542.97296 829.41571,474.49607 c 43.83043,-22.13706 113.12346,-29.42895 140.91231,20.47119 25.9438,51.25246 -36.97984,-16.75277 -65.14408,5.89758 -84.65071,24.55608 -147.37235,91.56824 -218.03647,140.72512 -11.90591,12.34583 -114.30846,74.96095 -79.01693,58.33663 103.85485,0.15613 214.72822,1.69116 308.38746,-49.27682 50.91142,-26.98972 83.3839,-99.79226 49.72095,-150.95963 C 930.46167,453.97398 867.837,475.48459 819.311,480.857 791.58534,333.03766 772.81782,190.52372 770.38424,40.099141 764.94845,-3.9953149 663.78896,7.9220367 608.27888,10.59686 446.39933,19.592752 281.30749,33.729661 125.97808,82.405725 67.744675,90.522882 70.701323,120.6469 91.604571,192.64247 125.5404,323.0485 145.69351,445.40904 165.40932,578.57989 Z" id="path4191" inkscape:connector-curvature="0" sodipodi:nodetypes="ccccccccccccccccc" /></g><path style="fill:#ffffff;fill-opacity:0;stroke:none;stroke-width:4.83286" d="m -84.596049,330.30896 c 84.82110191,7.41767 173.496985,6.3857 253.711659,-23.99734 41.89116,-32.47737 83.78231,-64.95473 125.67347,-97.43209 -90.72926,30.75835 -185.87619,49.80053 -282.290115,52.07209 -32.322685,1.40403 -64.67578,2.03373 -97.027055,2.4411 -0.855079,22.29287 -0.252875,44.61551 -0.06796,66.91624 z" id="path4197" inkscape:connector-curvature="0" /><path style="opacity:1;fill:#333333;fill-opacity:1;stroke:none;stroke-width:1.91579;stroke-miterlimit:4;stroke-dasharray:none;stroke-opacity:1" d="m -85.769143,256.48324 c 3.604465,24.17637 3.844917,49.2705 5.373209,74.13466 80.17712491,7.35078 175.750401,7.17117 252.656624,-25.25993 43.57618,-17.33333 55.03367,-22.1598 89.3329,-45.68401 25.65492,-17.39318 61.75153,-36.17341 57.755,-55.95278 -1.03132,-5.10417 -0.4045,-5.81022 -6.84036,-4.38469 l -53.78121,16.62454 C 141.37716,250.06521 1.8900429,256.14741 -85.769143,256.48324 Z" id="path8041" inkscape:connector-curvature="0" sodipodi:nodetypes="ccccsccc" /><g id="path4392" transform="matrix(0.61822543,0,0,0.59031154,-186.8462,-84.370084)" style="fill:#ffffff;stroke:none"><path style="fill:#ffffff;stroke:none" d="M 303.93318,816.12927 C 238.89055,831.48513 529.12679,702.7938 624.45726,632.74355 708.03481,565.70944 786.72894,474.4564 885.36053,456.22513 977.25991,445.59255 994.98784,510.98623 985.78671,555.6446 979.20351,589.14395 851.09342,526.98891 851.09342,526.98891 740.73901,593.7477 628.41091,704.44618 507.036,753.48044 c -93.93824,41.2891 -155.64592,53.99643 -203.10282,62.64883 z" id="path4200" inkscape:connector-curvature="0" sodipodi:nodetypes="ccccccc" /><path style="fill:#ffffff;fill-opacity:0;stroke:none;stroke-width:8;stroke-linecap:round" d="M 317.303,810.831 C 429.74776,771.48339 529.12679,702.7938 624.45726,632.74355 704.16911,564.0574 780.15725,474.86941 889.6128,457.46416 c 78.07764,-12.90414 98.74272,69.26908 90.37536,97.35442 C 954.84961,509.84607 884.30224,501.72951 843.74859,526.5759 733.39418,593.33469 644.11625,692.62278 522.74134,741.65704 456.6844,771.26446 387.30693,792.79175 317.303,810.831 Z" id="path4202" inkscape:connector-curvature="0" sodipodi:nodetypes="ccccccc" /></g><path style="opacity:1;fill:#999999;fill-opacity:1;stroke:none;stroke-width:1.56765;stroke-miterlimit:4;stroke-dasharray:none;stroke-opacity:1" d="m 288.65545,277.43427 c -23.42112,6.751 -36.95839,16.44537 -60.04708,28.4872 -10.13034,5.03669 -17.3393,9.49115 -27.94493,14.09161 36.69944,-0.28396 69.22035,-0.43017 103.0202,-10.8795 15.90213,-4.74238 28.65424,-21.55563 17.82815,-30.3968 -9.02761,-5.2459 -22.45659,-3.44999 -32.85634,-1.30251 z" id="path4842" inkscape:connector-curvature="0" sodipodi:nodetypes="cccccc" /></g></svg>