<?xml version="1.0" encoding="UTF-8"?>
<svg version="1.1" xmlns="http://www.w3.org/2000/svg" width="1024" height="1024">
<path d="M0 0 C337.92 0 675.84 0 1024 0 C1024 337.92 1024 675.84 1024 1024 C686.08 1024 348.16 1024 0 1024 C0 686.08 0 348.16 0 0 Z " fill="#FAFAFA" transform="translate(0,0)"/>
<path d="M0 0 C10.9901903 -0.02345967 21.98037437 -0.04108256 32.97058487 -0.05181217 C38.07707877 -0.05696906 43.18355521 -0.06393089 48.29003906 -0.07543945 C70.88198737 -0.12505964 93.42994924 -0.1112484 116 1 C116 1.66 116 2.32 116 3 C117.00820801 2.98404785 118.01641602 2.9680957 119.05517578 2.95166016 C130.06374235 2.83292879 140.91034827 3.44318758 151.875 4.375 C153.55091567 4.51247156 155.22685995 4.64959476 156.90283203 4.78637695 C167.95193309 5.69780348 178.98864267 6.70364907 190 8 C190 8.66 190 9.32 190 10 C190.91136719 10.03738281 191.82273437 10.07476563 192.76171875 10.11328125 C204.29181686 10.69839071 215.59633024 12.23189893 227 14 C227 14.66 227 15.32 227 16 C228.11568359 16.03867187 228.11568359 16.03867187 229.25390625 16.078125 C241.00716299 16.68868379 252.4462339 18.85139966 264 21 C264 21.66 264 22.32 264 23 C265.258125 23.0825 266.51625 23.165 267.8125 23.25 C276.3233976 24.07522451 284.66310595 26.15972051 293 28 C293 28.66 293 29.32 293 30 C293.57105469 30.03738281 294.14210938 30.07476563 294.73046875 30.11328125 C302.00609452 30.70319685 308.92566508 32.23696042 316 34 C316 34.66 316 35.32 316 36 C317.155 36.0825 318.31 36.165 319.5 36.25 C326.81646415 37.03684285 333.90175864 39.1274578 341 41 C341 41.66 341 42.32 341 43 C341.70125 43.12117187 342.4025 43.24234375 343.125 43.3671875 C348.81970105 44.37304502 354.40894019 45.52311628 360 47 C360 47.66 360 48.32 360 49 C360.60585938 49.10957031 361.21171875 49.21914063 361.8359375 49.33203125 C368.03143795 50.50441057 373.99460467 52.08338447 380 54 C380 54.66 380 55.32 380 56 C381.00160156 56.12246094 382.00320313 56.24492188 383.03515625 56.37109375 C386.94537754 56.92969679 390.64766923 57.94359758 394.4375 59.0625 C395.67371094 59.42472656 396.90992188 59.78695312 398.18359375 60.16015625 C399.11300781 60.43730469 400.04242187 60.71445312 401 61 C401 61.66 401 62.32 401 63 C401.87011719 63.18175781 401.87011719 63.18175781 402.7578125 63.3671875 C407.28028442 64.33735474 411.63750966 65.43397783 416 67 C416 67.66 416 68.32 416 69 C416.763125 69.0825 417.52625 69.165 418.3125 69.25 C423.4149117 70.28777865 428.1455494 72.14287032 433 74 C433 74.66 433 75.32 433 76 C433.86625 76.12375 434.7325 76.2475 435.625 76.375 C439 77 439 77 445 79 C444.34 84.94 443.68 90.88 443 97 C442.34 97 441.68 97 441 97 C440.9575415 97.77424316 440.91508301 98.54848633 440.87133789 99.34619141 C440.20011656 110.09038859 438.84648317 120.70712467 437.4375 131.375 C437.20080293 133.19005609 436.96447238 135.00516002 436.72851562 136.8203125 C436.15655816 141.21410335 435.57967815 145.60722137 435 150 C434.34 150 433.68 150 433 150 C432.95029053 150.91861816 432.90058105 151.83723633 432.84936523 152.78369141 C432.2515593 163.10943028 431.3459852 173.38541814 430.32873535 183.67755127 C428.67445798 200.43839226 427.17323926 217.19787841 426 234 C425.34 234 424.68 234 424 234 C424.01522705 234.71560593 424.0304541 235.43121185 424.04614258 236.16850281 C424.16150137 246.23282134 423.45043608 256.17799096 422.6875 266.20703125 C422.55256205 268.02688059 422.41804796 269.84676139 422.28393555 271.66667175 C421.9330432 276.41301041 421.57646634 281.15890477 421.21862793 285.90472412 C420.85319677 290.76499933 420.49324831 295.62568037 420.1328125 300.48632812 C419.42718371 309.99128619 418.71553764 319.49578309 418 329 C417.34 329 416.68 329 416 329 C416.01160156 329.845625 416.02320313 330.69125 416.03515625 331.5625 C416.16970286 348.47693083 416.16970286 348.47693083 413.33834839 352.16363525 C410.37284763 354.49251878 408.58292272 354.61068835 404.83642578 354.81933594 C402.9417305 354.93368988 402.9417305 354.93368988 401.00875854 355.050354 C399.61266501 355.11293686 398.21651338 355.1742345 396.8203125 355.234375 C395.3485424 355.30982741 393.8767919 355.38566275 392.40505981 355.46185303 C374.81412865 356.31466624 357.20371585 356.31012416 339.59649277 356.25734329 C336.83512837 356.24989242 334.07378135 356.24628781 331.31240845 356.24362183 C298.13838583 356.20503385 265.09834498 355.30327529 232 353 C232 352.34 232 351.68 232 351 C231.20505127 351.02247803 230.41010254 351.04495605 229.59106445 351.06811523 C217.05838192 351.25566038 204.66509105 350.13581134 192.1875 349.0625 C189.97986365 348.87770557 187.77218151 348.69345725 185.56445312 348.50976562 C176.36890211 347.73949587 167.17958052 346.94387461 158 346 C158 345.34 158 344.68 158 344 C156.07027344 344.061875 156.07027344 344.061875 154.1015625 344.125 C146.13411405 344.125 138.26841907 342.97989539 130.375 342 C128.78261795 341.80674818 127.19017036 341.61403554 125.59765625 341.421875 C121.7309874 340.95412824 117.86527806 340.47909825 114 340 C114 339.34 114 338.68 114 338 C113.15824219 337.97421875 112.31648437 337.9484375 111.44921875 337.921875 C97.82948243 337.29958175 84.4545531 335.12479169 71 333 C71 332.34 71 331.68 71 331 C69.98993896 331.02255859 68.97987793 331.04511719 67.93920898 331.06835938 C64.14556911 331.00252615 60.70352477 330.56951552 56.97265625 329.90625 C55.04389648 329.56787109 55.04389648 329.56787109 53.07617188 329.22265625 C51.73825791 328.98190052 50.40036756 328.7410135 49.0625 328.5 C47.69736199 328.25856906 46.33212826 328.0176787 44.96679688 327.77734375 C41.64355243 327.19019809 38.32137983 326.59758772 35 326 C35 325.34 35 324.68 35 324 C34.45214844 323.96261719 33.90429688 323.92523437 33.33984375 323.88671875 C25.42194508 323.23011252 17.75877127 321.64485951 10 320 C10 319.34 10 318.68 10 318 C8.865625 317.9175 7.73125 317.835 6.5625 317.75 C-1.08706433 316.92601156 -8.54479563 314.84026285 -16 313 C-16 312.34 -16 311.68 -16 311 C-17.11375 310.896875 -18.2275 310.79375 -19.375 310.6875 C-24.43554302 310.070803 -29.16622643 308.57493852 -34 307 C-34 306.34 -34 305.68 -34 305 C-34.85851562 304.87753906 -35.71703125 304.75507812 -36.6015625 304.62890625 C-40.00686898 303.99872884 -43.10342101 303.06437721 -46.375 301.9375 C-47.43460938 301.57527344 -48.49421875 301.21304687 -49.5859375 300.83984375 C-50.38257813 300.56269531 -51.17921875 300.28554688 -52 300 C-52 299.34 -52 298.68 -52 298 C-53.65 297.67 -55.3 297.34 -57 297 C-58.53232086 291.19838265 -57.32230627 286.34101423 -56.0625 280.625 C-55.86720703 279.69816406 -55.67191406 278.77132813 -55.47070312 277.81640625 C-54.9900388 275.54204336 -54.49958628 273.27026779 -54 271 C-53.34 271 -52.68 271 -52 271 C-51.88785156 269.78441406 -51.77570313 268.56882812 -51.66015625 267.31640625 C-50.9710782 261.11470384 -49.69555894 255.04454803 -48.4375 248.9375 C-48.20353516 247.78572266 -47.96957031 246.63394531 -47.72851562 245.44726562 C-47.15586745 242.63077154 -46.57961941 239.81506618 -46 237 C-45.34 237 -44.68 237 -44 237 C-43.89816406 235.84628906 -43.79632813 234.69257812 -43.69140625 233.50390625 C-42.88460533 226.24269794 -41.35562554 219.09842096 -39.9375 211.9375 C-39.65266001 210.48509166 -39.36815212 209.03261814 -39.08398438 207.58007812 C-38.39314979 204.05262589 -37.6978262 200.52607661 -37 197 C-36.34 197 -35.68 197 -35 197 C-34.93631226 196.06450317 -34.93631226 196.06450317 -34.87133789 195.11010742 C-34.24088837 187.07315152 -32.90362532 179.23450489 -31.4375 171.3125 C-31.20353516 170.02666016 -30.96957031 168.74082031 -30.72851562 167.41601562 C-30.15663933 164.27653148 -29.58038572 161.13792014 -29 158 C-28.34 158 -27.68 158 -27 158 C-26.89816406 156.73414063 -26.79632813 155.46828125 -26.69140625 154.1640625 C-25.85918059 145.84180586 -24.33954223 137.61593753 -22.9375 129.375 C-22.65269145 127.68624905 -22.36818375 125.99744733 -22.08398438 124.30859375 C-21.39279092 120.20513549 -20.69752664 116.10238625 -20 112 C-19.34 112 -18.68 112 -18 112 C-17.96334229 111.29721924 -17.92668457 110.59443848 -17.88891602 109.87036133 C-17.22016687 99.37124781 -15.58503906 89.06937003 -13.9375 78.6875 C-13.65253531 76.86791044 -13.36802683 75.04824937 -13.08398438 73.22851562 C-12.39457213 68.81816956 -11.6990197 64.40883309 -11 60 C-10.34 60 -9.68 60 -9 60 C-8.93631226 58.902323 -8.93631226 58.902323 -8.87133789 57.7824707 C-8.2303225 48.16279354 -6.88700715 38.71268863 -5.4375 29.1875 C-5.20074987 27.60878719 -4.96441916 26.03001141 -4.72851562 24.45117188 C-4.15716204 20.63337368 -3.58018962 16.81646494 -3 13 C-2.34 13 -1.68 13 -1 13 C-0.505 6.565 -0.505 6.565 0 0 Z " fill="#FAFAFA" transform="translate(302,581)"/>
<path d="M0 0 C0.97699356 -0.00095673 1.95398712 -0.00191345 2.96058655 -0.00289917 C5.01010198 -0.00357435 7.05961964 -0.0017667 9.10913086 0.00244141 C12.21147564 0.00779321 15.31367529 0.00247666 18.41601562 -0.00390625 C28.08296674 -0.00681737 37.67160019 -0.00306453 47.28515625 1.1328125 C47.28515625 1.7928125 47.28515625 2.4528125 47.28515625 3.1328125 C48.6 3.17148437 48.6 3.17148437 49.94140625 3.2109375 C62.57224659 3.77573117 74.85519582 5.89249273 87.28515625 8.1328125 C87.28515625 8.7928125 87.28515625 9.4528125 87.28515625 10.1328125 C88.41953125 10.2153125 89.55390625 10.2978125 90.72265625 10.3828125 C98.37222058 11.20680094 105.82995188 13.29254965 113.28515625 15.1328125 C113.28515625 15.7928125 113.28515625 16.4528125 113.28515625 17.1328125 C114.37828125 17.2359375 115.47140625 17.3390625 116.59765625 17.4453125 C121.97480809 18.1017691 127.09694273 19.6164045 132.28515625 21.1328125 C132.28515625 21.7928125 132.28515625 22.4528125 132.28515625 23.1328125 C132.89101563 23.24238281 133.496875 23.35195313 134.12109375 23.46484375 C140.3165942 24.63722307 146.27976092 26.21619697 152.28515625 28.1328125 C152.28515625 28.7928125 152.28515625 29.4528125 152.28515625 30.1328125 C153.08953125 30.2359375 153.89390625 30.3390625 154.72265625 30.4453125 C159.06763011 31.28381623 163.11973152 32.66102909 167.28515625 34.1328125 C167.28515625 34.7928125 167.28515625 35.4528125 167.28515625 36.1328125 C168.10306641 36.29716797 168.10306641 36.29716797 168.9375 36.46484375 C174.5405069 37.64291187 179.89059495 39.2198475 185.28515625 41.1328125 C185.28515625 41.7928125 185.28515625 42.4528125 185.28515625 43.1328125 C185.93742187 43.32617188 186.5896875 43.51953125 187.26171875 43.71875 C191.96229605 45.11921698 196.64356516 46.54489976 201.28515625 48.1328125 C201.28515625 48.7928125 201.28515625 49.4528125 201.28515625 50.1328125 C201.97222656 50.33777344 202.65929687 50.54273438 203.3671875 50.75390625 C204.26824219 51.02332031 205.16929687 51.29273438 206.09765625 51.5703125 C206.99097656 51.83714844 207.88429688 52.10398437 208.8046875 52.37890625 C210.6398868 52.93669123 212.46549351 53.52625825 214.28515625 54.1328125 C214.28515625 54.7928125 214.28515625 55.4528125 214.28515625 56.1328125 C215.29835938 56.42285156 215.29835938 56.42285156 216.33203125 56.71875 C217.2240625 56.97914063 218.11609375 57.23953125 219.03515625 57.5078125 C219.916875 57.76304687 220.79859375 58.01828125 221.70703125 58.28125 C224.04596197 59.0538059 226.11958187 59.96906926 228.28515625 61.1328125 C228.28515625 61.7928125 228.28515625 62.4528125 228.28515625 63.1328125 C228.96578125 63.2359375 229.64640625 63.3390625 230.34765625 63.4453125 C233.91431614 64.28006269 236.94737819 65.62754004 240.28515625 67.1328125 C240.28515625 67.7928125 240.28515625 68.4528125 240.28515625 69.1328125 C240.8884375 69.32617188 241.49171875 69.51953125 242.11328125 69.71875 C242.9125 69.97914063 243.71171875 70.23953125 244.53515625 70.5078125 C245.3240625 70.76304687 246.11296875 71.01828125 246.92578125 71.28125 C249.15143583 72.08454917 251.19447297 73.02992912 253.28515625 74.1328125 C253.28515625 74.7928125 253.28515625 75.4528125 253.28515625 76.1328125 C253.87683594 76.32617188 254.46851563 76.51953125 255.078125 76.71875 C259.19982075 78.07695969 263.28020865 79.45331835 267.28515625 81.1328125 C267.28515625 81.7928125 267.28515625 82.4528125 267.28515625 83.1328125 C268.00703125 83.4215625 268.72890625 83.7103125 269.47265625 84.0078125 C273.37890625 85.5703125 273.37890625 85.5703125 277.28515625 87.1328125 C277.28515625 87.7928125 277.28515625 88.4528125 277.28515625 89.1328125 C280.79481131 90.207274 284.06130972 90.27613437 287.72070312 90.30639648 C289.03147827 90.31988632 290.34225342 90.33337616 291.69274902 90.34727478 C292.74374031 90.3548647 292.74374031 90.3548647 293.81596375 90.36260796 C296.0419798 90.37918987 298.26783846 90.40245291 300.49377441 90.42750549 C306.82421751 90.49766444 313.15473868 90.55708705 319.48535156 90.60961914 C342.87049205 90.80878377 366.00556434 91.70822639 389.28515625 94.1328125 C389.28515625 94.7928125 389.28515625 95.4528125 389.28515625 96.1328125 C390.44917969 96.0915625 391.61320313 96.0503125 392.8125 96.0078125 C399.88817886 96.0078125 406.85687728 97.14817247 413.84765625 98.1328125 C415.25187721 98.32607325 416.65617371 98.51878592 418.06054688 98.7109375 C421.46964386 99.17858234 424.87765974 99.65362833 428.28515625 100.1328125 C428.28515625 100.7928125 428.28515625 101.4528125 428.28515625 102.1328125 C428.85878906 102.15859375 429.43242188 102.184375 430.0234375 102.2109375 C439.63395907 102.85261117 448.90755478 105.04350233 458.28515625 107.1328125 C458.28515625 107.7928125 458.28515625 108.4528125 458.28515625 109.1328125 C459.31640625 109.2153125 460.34765625 109.2978125 461.41015625 109.3828125 C467.87052041 110.16412008 474.07499281 112.25755247 480.28515625 114.1328125 C480.28515625 114.7928125 480.28515625 115.4528125 480.28515625 116.1328125 C480.93742188 116.25398438 481.5896875 116.37515625 482.26171875 116.5 C487.07161967 117.42225239 491.6754109 118.43448527 496.28515625 120.1328125 C496.28515625 120.7928125 496.28515625 121.4528125 496.28515625 122.1328125 C497.00058594 122.25527344 497.71601562 122.37773437 498.453125 122.50390625 C501.33628338 123.14416625 503.87108098 124.06832806 506.59765625 125.1953125 C507.48066406 125.55753906 508.36367188 125.91976562 509.2734375 126.29296875 C509.93730469 126.57011719 510.60117187 126.84726562 511.28515625 127.1328125 C511.28515625 127.7928125 511.28515625 128.4528125 511.28515625 129.1328125 C511.96578125 129.2359375 512.64640625 129.3390625 513.34765625 129.4453125 C517.43305964 130.40147074 521.7337459 131.56480952 524.74609375 134.609375 C526.47938607 136.32507045 528.07270473 137.12715272 530.28515625 138.1328125 C533.21219382 139.46328412 535.06207628 140.82584272 537.28515625 143.1328125 C538.33703125 143.8134375 539.38890625 144.4940625 540.47265625 145.1953125 C541.40078125 145.8346875 542.32890625 146.4740625 543.28515625 147.1328125 C543.28515625 147.7928125 543.28515625 148.4528125 543.28515625 149.1328125 C544.33703125 149.41125 544.33703125 149.41125 545.41015625 149.6953125 C548.81810829 151.39928852 550.4409129 153.40140235 552.8046875 156.32421875 C555.31203562 159.38728519 558.15323643 162.11798784 561.09765625 164.7578125 C562.28515625 166.1328125 562.28515625 166.1328125 562.28515625 169.1328125 C563.27515625 169.4628125 564.26515625 169.7928125 565.28515625 170.1328125 C568.84003882 175.43350928 571.28515625 181.77287107 571.28515625 188.1328125 C571.94515625 188.1328125 572.60515625 188.1328125 573.28515625 188.1328125 C574.04151692 191.503387 574.41326688 194.62203572 574.41796875 198.07421875 C574.41925781 198.98751953 574.42054688 199.90082031 574.421875 200.84179688 C574.41800781 201.78345703 574.41414062 202.72511719 574.41015625 203.6953125 C574.41402344 204.64083984 574.41789063 205.58636719 574.421875 206.56054688 C574.42058594 207.47255859 574.41929687 208.38457031 574.41796875 209.32421875 C574.41627686 210.56473999 574.41627686 210.56473999 574.41455078 211.83032227 C574.28931761 214.05876392 573.90401001 215.99386461 573.28515625 218.1328125 C572.62515625 218.1328125 571.96515625 218.1328125 571.28515625 218.1328125 C571.16140625 219.5559375 571.16140625 219.5559375 571.03515625 221.0078125 C569.46272342 231.29069561 564.50987964 237.88264994 557.28515625 245.1328125 C556.58777344 245.8546875 555.89039063 246.5765625 555.171875 247.3203125 C553.06044825 249.34868105 550.79323594 250.64152187 548.28515625 252.1328125 C547.95515625 252.7928125 547.62515625 253.4528125 547.28515625 254.1328125 C544.87169375 255.104084 542.50467709 255.95789238 540.03515625 256.7578125 C539.36613281 256.98726562 538.69710937 257.21671875 538.0078125 257.453125 C534.3316032 258.66649074 531.16000888 259.41816986 527.28515625 259.1328125 C527.28515625 259.7928125 527.28515625 260.4528125 527.28515625 261.1328125 C516.05905827 262.73654078 504.51125423 262.73654078 493.28515625 261.1328125 C493.28515625 260.4728125 493.28515625 259.8128125 493.28515625 259.1328125 C492.71410156 259.10703125 492.14304687 259.08125 491.5546875 259.0546875 C484.08042287 258.53184546 477.36327204 256.51807096 470.28515625 254.1328125 C470.28515625 253.4728125 470.28515625 252.8128125 470.28515625 252.1328125 C468.96515625 252.1328125 467.64515625 252.1328125 466.28515625 252.1328125 C466.22908203 253.10154297 466.22908203 253.10154297 466.171875 254.08984375 C465.48951934 263.87027494 463.89208356 273.4710357 462.28515625 283.1328125 C461.62515625 283.1328125 460.96515625 283.1328125 460.28515625 283.1328125 C460.24849854 283.88385254 460.21184082 284.63489258 460.17407227 285.40869141 C459.49360607 296.86643007 457.85442712 308.15407305 456.22265625 319.5078125 C455.93771142 321.51556266 455.65320302 323.5233748 455.36914062 325.53125 C454.67950253 330.39916593 453.98398511 335.26620785 453.28515625 340.1328125 C452.62515625 340.1328125 451.96515625 340.1328125 451.28515625 340.1328125 C451.24269775 340.99777344 451.20023926 341.86273437 451.15649414 342.75390625 C450.4460514 355.59279754 449.08781931 368.34949019 447.72265625 381.1328125 C447.48601776 383.37236306 447.24968745 385.61194621 447.01367188 387.8515625 C446.44104699 393.27902606 445.86463971 398.70607716 445.28515625 404.1328125 C444.62515625 404.1328125 443.96515625 404.1328125 443.28515625 404.1328125 C443.29702972 404.70250763 443.3089032 405.27220276 443.32113647 405.85916138 C443.40300702 413.03796756 442.88994639 420.102246 442.26171875 427.25 C442.15548187 428.50120636 442.049245 429.75241272 441.93978882 431.04153442 C441.65743099 434.36165525 441.37169359 437.68144526 441.08392334 441.00109863 C440.57526224 446.87526776 440.07400298 452.75006998 439.57421875 458.625 C439.41110199 460.53959015 439.41110199 460.53959015 439.24468994 462.49285889 C438.13195804 475.69740254 437.18887372 488.91242271 436.28515625 502.1328125 C435.62515625 502.1328125 434.96515625 502.1328125 434.28515625 502.1328125 C434.30799683 503.31157959 434.30799683 503.31157959 434.33129883 504.51416016 C434.43178115 514.05519587 433.91617511 523.47730879 433.16821289 532.98486328 C432.97137825 535.52430042 432.79309721 538.06464078 432.61523438 540.60546875 C432.48940807 542.24748257 432.36249376 543.88941346 432.234375 545.53125 C432.18423752 546.27724457 432.13410004 547.02323914 432.08244324 547.7918396 C431.64447517 553.0252687 430.30376838 557.28143862 428.28515625 562.1328125 C427.62515625 562.1328125 426.96515625 562.1328125 426.28515625 562.1328125 C426.03765625 562.9165625 425.79015625 563.7003125 425.53515625 564.5078125 C424.0902134 567.54219249 423.22949806 567.80310975 420.28515625 569.1328125 C419.95515625 570.1228125 419.62515625 571.1128125 419.28515625 572.1328125 C412.82408332 574.93645665 406.23195928 575.47445855 399.28515625 575.1328125 C399.28515625 575.7928125 399.28515625 576.4528125 399.28515625 577.1328125 C387.64214153 577.88299489 376.01117267 578.40811501 364.34765625 578.6953125 C363.51679504 578.71582672 362.68593384 578.73634094 361.82989502 578.75747681 C323.91113795 579.66698708 286.17622834 578.79632624 248.28515625 577.1328125 C248.28515625 576.4728125 248.28515625 575.8128125 248.28515625 575.1328125 C247.18075195 575.15601563 246.07634766 575.17921875 244.93847656 575.203125 C229.57057901 575.41745534 214.35025164 574.30094622 199.03515625 573.1328125 C196.42843507 572.93943363 193.82166439 572.74672089 191.21484375 572.5546875 C184.90435786 572.08838989 178.59452798 571.61393908 172.28515625 571.1328125 C172.28515625 570.4728125 172.28515625 569.8128125 172.28515625 569.1328125 C171.61775925 569.14550171 170.95036224 569.15819092 170.26274109 569.17126465 C163.54651096 569.24312461 157.03317131 568.82506271 150.3671875 568.0390625 C149.3839299 567.92808228 148.4006723 567.81710205 147.38761902 567.70275879 C144.29027916 567.35184483 141.19398979 566.99248639 138.09765625 566.6328125 C135.97988177 566.3913645 133.86204365 566.15047408 131.74414062 565.91015625 C126.59038858 565.32414273 121.43755983 564.73056126 116.28515625 564.1328125 C116.28515625 563.4728125 116.28515625 562.8128125 116.28515625 562.1328125 C114.3352478 562.16665039 114.3352478 562.16665039 112.34594727 562.20117188 C107.58972509 562.19884993 103.01458798 561.71317028 98.3125 561.0390625 C97.50398087 560.92808228 96.69546173 560.81710205 95.86244202 560.70275879 C93.31502268 560.35177985 90.76886558 559.9924534 88.22265625 559.6328125 C86.48119683 559.39137075 84.73966088 559.15048035 82.99804688 558.91015625 C78.75950634 558.32407017 74.52207546 557.73050201 70.28515625 557.1328125 C70.28515625 556.4728125 70.28515625 555.8128125 70.28515625 555.1328125 C69.08246094 555.07673828 69.08246094 555.07673828 67.85546875 555.01953125 C57.8456485 554.44073212 48.14260315 552.90983524 38.28515625 551.1328125 C38.28515625 550.4728125 38.28515625 549.8128125 38.28515625 549.1328125 C37.30615356 549.06042358 37.30615356 549.06042358 36.30737305 548.98657227 C29.15100205 548.40365746 22.159292 547.35218737 15.09765625 546.0703125 C14.05029297 545.88404297 13.00292969 545.69777344 11.92382812 545.50585938 C9.37683852 545.05228588 6.83067526 544.59455482 4.28515625 544.1328125 C4.28515625 543.4728125 4.28515625 542.8128125 4.28515625 542.1328125 C3.42857422 542.07673828 3.42857422 542.07673828 2.5546875 542.01953125 C-4.72093827 541.42961565 -11.64050883 539.89585208 -18.71484375 538.1328125 C-18.71484375 537.4728125 -18.71484375 536.8128125 -18.71484375 536.1328125 C-19.38128906 536.02324219 -20.04773438 535.91367187 -20.734375 535.80078125 C-27.52421519 534.63273881 -34.09954811 533.05214392 -40.71484375 531.1328125 C-40.71484375 530.4728125 -40.71484375 529.8128125 -40.71484375 529.1328125 C-41.57335937 529.01035156 -42.431875 528.88789062 -43.31640625 528.76171875 C-46.72171273 528.13154134 -49.81826476 527.19718971 -53.08984375 526.0703125 C-54.14945312 525.70808594 -55.2090625 525.34585938 -56.30078125 524.97265625 C-57.09742188 524.69550781 -57.8940625 524.41835938 -58.71484375 524.1328125 C-58.71484375 523.4728125 -58.71484375 522.8128125 -58.71484375 522.1328125 C-59.53984375 522.0296875 -60.36484375 521.9265625 -61.21484375 521.8203125 C-65.30773387 521.01635194 -68.840246 519.66929092 -72.71484375 518.1328125 C-72.71484375 517.4728125 -72.71484375 516.8128125 -72.71484375 516.1328125 C-73.41609375 515.9678125 -74.11734375 515.8028125 -74.83984375 515.6328125 C-79.03900505 513.44194573 -81.30249723 510.15082915 -83.71484375 506.1328125 C-84.58984375 503.1328125 -84.58984375 503.1328125 -84.71484375 501.1328125 C-85.37484375 501.1328125 -86.03484375 501.1328125 -86.71484375 501.1328125 C-88.72442005 495.10408359 -88.00963427 488.28306748 -86.71484375 482.1328125 C-86.05484375 482.1328125 -85.39484375 482.1328125 -84.71484375 482.1328125 C-84.67818604 481.5980127 -84.64152832 481.06321289 -84.60375977 480.51220703 C-83.9137276 472.2267034 -82.27420779 464.14798085 -80.65234375 456.0078125 C-80.36741507 454.55997911 -80.08290673 453.11206293 -79.79882812 451.6640625 C-79.10900506 448.15267912 -78.413518 444.64244682 -77.71484375 441.1328125 C-77.05484375 441.1328125 -76.39484375 441.1328125 -75.71484375 441.1328125 C-75.60269531 439.92753906 -75.49054688 438.72226562 -75.375 437.48046875 C-74.66711723 431.10952383 -73.3939634 424.85492511 -72.15234375 418.5703125 C-71.91837891 417.37083984 -71.68441406 416.17136719 -71.44335938 414.93554688 C-70.87041228 412.0006546 -70.29416648 409.06645172 -69.71484375 406.1328125 C-69.05484375 406.1328125 -68.39484375 406.1328125 -67.71484375 406.1328125 C-67.67818604 405.59221191 -67.64152832 405.05161133 -67.60375977 404.49462891 C-66.93147705 396.37571404 -65.29551316 388.47268556 -63.65234375 380.5078125 C-63.36738652 379.10816487 -63.08287806 377.70842579 -62.79882812 376.30859375 C-62.1093302 372.91559821 -61.41379193 369.52387554 -60.71484375 366.1328125 C-60.05484375 366.1328125 -59.39484375 366.1328125 -58.71484375 366.1328125 C-58.67238525 365.44348633 -58.62992676 364.75416016 -58.58618164 364.04394531 C-57.97954189 355.54678089 -56.65566955 347.26269583 -55.15234375 338.8828125 C-54.91552332 337.54045134 -54.67919247 336.19800372 -54.44335938 334.85546875 C-53.87196931 331.61370471 -53.29571478 328.37288868 -52.71484375 325.1328125 C-52.05484375 325.1328125 -51.39484375 325.1328125 -50.71484375 325.1328125 C-50.67818604 324.56715576 -50.64152832 324.00149902 -50.60375977 323.41870117 C-49.85095761 313.67879987 -48.20885164 304.08130745 -46.65234375 294.4453125 C-46.36750192 292.66476736 -46.08299402 290.88416877 -45.79882812 289.10351562 C-45.10801469 284.77932207 -44.41268755 280.45587681 -43.71484375 276.1328125 C-43.05484375 276.1328125 -42.39484375 276.1328125 -41.71484375 276.1328125 C-41.67238525 275.40102783 -41.62992676 274.66924316 -41.58618164 273.9152832 C-40.94516625 264.29560604 -39.6018509 254.84550113 -38.15234375 245.3203125 C-37.91559362 243.74159969 -37.67926291 242.16282391 -37.44335938 240.58398438 C-36.87200579 236.76618618 -36.29503337 232.94927744 -35.71484375 229.1328125 C-35.05484375 229.1328125 -34.39484375 229.1328125 -33.71484375 229.1328125 C-33.67818604 228.43583252 -33.64152832 227.73885254 -33.60375977 227.02075195 C-32.92147314 216.35633371 -31.28260176 205.87329674 -29.65234375 195.3203125 C-29.36740189 193.45254052 -29.08289351 191.58470236 -28.79882812 189.71679688 C-28.10915577 185.18802448 -27.41364425 180.660185 -26.71484375 176.1328125 C-28.45882446 176.14151367 -28.45882446 176.14151367 -30.23803711 176.15039062 C-31.78108684 176.15508253 -33.324137 176.15963231 -34.8671875 176.1640625 C-35.63140015 176.16825195 -36.39561279 176.17244141 -37.1829834 176.17675781 C-42.43750496 176.1880609 -47.50794567 175.89017949 -52.71484375 175.1328125 C-52.71484375 174.4728125 -52.71484375 173.8128125 -52.71484375 173.1328125 C-53.40707031 173.10703125 -54.09929687 173.08125 -54.8125 173.0546875 C-63.5130234 172.55030933 -71.40086286 170.57476044 -79.71484375 168.1328125 C-79.71484375 167.4728125 -79.71484375 166.8128125 -79.71484375 166.1328125 C-80.37484375 166.0296875 -81.03484375 165.9265625 -81.71484375 165.8203125 C-85.55325384 164.94067686 -89.04581066 163.56311354 -92.71484375 162.1328125 C-92.71484375 161.4728125 -92.71484375 160.8128125 -92.71484375 160.1328125 C-93.41609375 159.8646875 -94.11734375 159.5965625 -94.83984375 159.3203125 C-96.26296875 158.7325 -96.26296875 158.7325 -97.71484375 158.1328125 C-99.16890625 157.5759375 -99.16890625 157.5759375 -100.65234375 157.0078125 C-104.21534688 154.82638201 -105.84824616 152.5019828 -108.203125 149.12109375 C-109.64497422 147.22470809 -111.03092007 145.90086425 -112.90234375 144.4453125 C-115.67825289 142.16289832 -117.15418067 140.34084217 -118.71484375 137.1328125 C-118.71484375 136.4728125 -118.71484375 135.8128125 -118.71484375 135.1328125 C-119.37484375 135.1328125 -120.03484375 135.1328125 -120.71484375 135.1328125 C-126.27065241 123.79568266 -126.27065241 123.79568266 -126.71484375 117.1328125 C-127.37484375 117.1328125 -128.03484375 117.1328125 -128.71484375 117.1328125 C-130.02127604 111.1605506 -129.86187015 105.21209899 -129.83984375 99.1328125 C-129.84371094 98.06546875 -129.84757813 96.998125 -129.8515625 95.8984375 C-129.84531011 90.87151515 -129.79473582 86.06946196 -128.71484375 81.1328125 C-128.05484375 81.1328125 -127.39484375 81.1328125 -126.71484375 81.1328125 C-126.616875 80.52695312 -126.51890625 79.92109375 -126.41796875 79.296875 C-125.26856045 72.85622504 -123.33824708 67.11824728 -120.71484375 61.1328125 C-120.05484375 61.1328125 -119.39484375 61.1328125 -118.71484375 61.1328125 C-118.48796875 60.4934375 -118.26109375 59.8540625 -118.02734375 59.1953125 C-115.240031 52.69158275 -112.62709596 47.27138905 -106.71484375 43.1328125 C-103.98334384 40.53788759 -101.49390084 37.88837049 -99.15234375 34.9453125 C-96.88587332 32.33015431 -95.73434655 31.49645892 -92.71484375 30.1328125 C-92.09609375 29.4934375 -91.47734375 28.8540625 -90.83984375 28.1953125 C-88.35947023 25.78789115 -85.80516022 24.64509503 -82.71484375 23.1328125 C-82.02648437 22.39804687 -82.02648437 22.39804687 -81.32421875 21.6484375 C-79.34277077 19.78241368 -77.6184182 19.23390038 -75.02734375 18.4453125 C-74.21910156 18.19394531 -73.41085938 17.94257813 -72.578125 17.68359375 C-71.96324219 17.50183594 -71.34835938 17.32007813 -70.71484375 17.1328125 C-70.71484375 16.4728125 -70.71484375 15.8128125 -70.71484375 15.1328125 C-68.46752273 14.29156934 -66.2174559 13.45966418 -63.96484375 12.6328125 C-63.330625 12.39433594 -62.69640625 12.15585937 -62.04296875 11.91015625 C-58.68197768 10.68479492 -56.34612788 10.1328125 -52.71484375 10.1328125 C-52.71484375 9.4728125 -52.71484375 8.8128125 -52.71484375 8.1328125 C-50.00707881 7.48451688 -47.2986793 6.83910648 -44.58984375 6.1953125 C-43.82929688 6.01291016 -43.06875 5.83050781 -42.28515625 5.64257812 C-35.31518006 3.99021308 -28.88420995 3.00920274 -21.71484375 3.1328125 C-21.71484375 2.4728125 -21.71484375 1.8128125 -21.71484375 1.1328125 C-14.45617265 0.36715637 -7.29714956 -0.0162004 0 0 Z M-6.71484375 198.1328125 C-7.04484375 202.4228125 -7.37484375 206.7128125 -7.71484375 211.1328125 C-8.37484375 211.1328125 -9.03484375 211.1328125 -9.71484375 211.1328125 C-10.57601175 216.70024837 -11.43028304 222.26868366 -12.27832031 227.83813477 C-12.56746501 229.73067416 -12.85845656 231.62293238 -13.15136719 233.51489258 C-13.57328243 236.24227328 -13.98843537 238.97061288 -14.40234375 241.69921875 C-14.53358643 242.53804092 -14.6648291 243.3768631 -14.80004883 244.24110413 C-15.50423073 248.93255076 -15.84855529 253.38883856 -15.71484375 258.1328125 C-16.37484375 258.1328125 -17.03484375 258.1328125 -17.71484375 258.1328125 C-18.7193242 264.41214185 -19.71533161 270.69277375 -20.70556641 276.97436523 C-21.04315153 279.10943741 -21.38264778 281.24420834 -21.72412109 283.37866211 C-22.21569134 286.45348415 -22.70029189 289.52933761 -23.18359375 292.60546875 C-23.33671021 293.55365982 -23.48982666 294.50185089 -23.64758301 295.47877502 C-24.41847666 300.43161163 -24.88362965 305.12047408 -24.71484375 310.1328125 C-25.37484375 310.1328125 -26.03484375 310.1328125 -26.71484375 310.1328125 C-27.71834433 315.71840654 -28.71504785 321.30515557 -29.70556641 326.89306641 C-30.04323362 328.79248494 -30.38273177 330.69157895 -30.72412109 332.59033203 C-31.21547421 335.3250058 -31.70015655 338.06079218 -32.18359375 340.796875 C-32.41326843 342.06285019 -32.41326843 342.06285019 -32.64758301 343.35440063 C-33.40378815 347.67312752 -33.88932504 351.72715985 -33.71484375 356.1328125 C-34.37484375 356.1328125 -35.03484375 356.1328125 -35.71484375 356.1328125 C-36.57620662 360.72140248 -37.43046547 365.31123859 -38.27832031 369.90234375 C-38.56741148 371.46227194 -38.85840177 373.02184947 -39.15136719 374.58105469 C-39.57342719 376.82917022 -39.98852106 379.07848046 -40.40234375 381.328125 C-40.53358643 382.018992 -40.6648291 382.70985901 -40.80004883 383.42166138 C-41.51972256 387.37715185 -41.84605542 391.11445512 -41.71484375 395.1328125 C-42.37484375 395.1328125 -43.03484375 395.1328125 -43.71484375 395.1328125 C-44.71796463 400.02455128 -45.71468297 404.91753525 -46.70556641 409.81176758 C-47.04333939 411.4755343 -47.38283987 413.13895131 -47.72412109 414.80200195 C-48.21519466 417.19652246 -48.69998214 419.592244 -49.18359375 421.98828125 C-49.33671021 422.7280571 -49.48982666 423.46783295 -49.64758301 424.23002625 C-50.38522139 427.91623041 -50.89568955 431.37057397 -50.71484375 435.1328125 C-51.37484375 435.1328125 -52.03484375 435.1328125 -52.71484375 435.1328125 C-53.57429862 439.33103619 -54.42864459 443.5302577 -55.27832031 447.73046875 C-55.56794102 449.15848674 -55.85894343 450.58622524 -56.15136719 452.01367188 C-56.57201945 454.06828632 -56.987654 456.12386242 -57.40234375 458.1796875 C-57.77939453 460.03352051 -57.77939453 460.03352051 -58.1640625 461.92480469 C-58.82765284 465.24737441 -58.82765284 465.24737441 -58.71484375 469.1328125 C-59.37484375 469.1328125 -60.03484375 469.1328125 -60.71484375 469.1328125 C-61.42005769 472.33751318 -62.10078523 475.5469506 -62.77734375 478.7578125 C-62.97650391 479.66144531 -63.17566406 480.56507813 -63.38085938 481.49609375 C-64.39154513 486.3544779 -65.01091838 490.22566201 -63.71484375 495.1328125 C-62.06484375 495.4628125 -60.41484375 495.7928125 -58.71484375 496.1328125 C-58.71484375 496.7928125 -58.71484375 497.4528125 -58.71484375 498.1328125 C-56.46752273 498.97405566 -54.2174559 499.80596082 -51.96484375 500.6328125 C-51.01351562 500.99052734 -51.01351562 500.99052734 -50.04296875 501.35546875 C-46.68197768 502.58083008 -44.34612788 503.1328125 -40.71484375 503.1328125 C-40.71484375 503.7928125 -40.71484375 504.4528125 -40.71484375 505.1328125 C-38.46679373 505.80602534 -36.21632151 506.47115373 -33.96484375 507.1328125 C-32.711875 507.5040625 -31.45890625 507.8753125 -30.16796875 508.2578125 C-26.66231143 509.29656622 -26.66231143 509.29656622 -22.71484375 509.1328125 C-22.71484375 509.7928125 -22.71484375 510.4528125 -22.71484375 511.1328125 C-19.32126031 511.97549337 -15.9246529 512.80529151 -12.52734375 513.6328125 C-11.56763672 513.87128906 -10.60792969 514.10976563 -9.61914062 514.35546875 C-8.68779297 514.58105469 -7.75644531 514.80664062 -6.796875 515.0390625 C-5.94327393 515.24853516 -5.08967285 515.45800781 -4.21020508 515.67382812 C-1.65538068 516.14374984 0.69360384 516.21398877 3.28515625 516.1328125 C3.28515625 516.7928125 3.28515625 517.4528125 3.28515625 518.1328125 C6.51270439 518.80747996 9.7424256 519.47111819 12.97265625 520.1328125 C14.34067383 520.41898438 14.34067383 520.41898438 15.73632812 520.7109375 C16.62255859 520.89140625 17.50878906 521.071875 18.421875 521.2578125 C19.23358154 521.42539062 20.04528809 521.59296875 20.8815918 521.765625 C23.3857749 522.1481838 25.75591127 522.19579759 28.28515625 522.1328125 C28.28515625 522.7928125 28.28515625 523.4528125 28.28515625 524.1328125 C32.28568577 524.85259387 36.28755249 525.56436905 40.29077148 526.26904297 C41.64987724 526.50940707 43.00861158 526.75188195 44.36694336 526.99658203 C46.32955359 527.34975097 48.293677 527.69447732 50.2578125 528.0390625 C51.43609619 528.24853516 52.61437988 528.45800781 53.82836914 528.67382812 C57.35589088 529.14220448 60.73107929 529.21218887 64.28515625 529.1328125 C64.28515625 529.7928125 64.28515625 530.4528125 64.28515625 531.1328125 C69.12215484 531.8522395 73.96019482 532.56403715 78.79931641 533.26904297 C80.44252162 533.50950415 82.08543308 533.75198225 83.72802734 533.99658203 C86.10047674 534.34949648 88.47391717 534.69494278 90.84765625 535.0390625 C91.57194824 535.1484314 92.29624023 535.25780029 93.04248047 535.3704834 C97.83684496 536.05598373 102.44152091 536.22815965 107.28515625 536.1328125 C107.28515625 536.7928125 107.28515625 537.4528125 107.28515625 538.1328125 C111.94326121 538.71018104 116.60225808 539.27950466 121.26220703 539.84179688 C122.84319751 540.03366621 124.42393557 540.22762868 126.00439453 540.42382812 C134.47368442 541.47378437 142.73203874 542.40706076 151.28515625 542.1328125 C151.28515625 542.7928125 151.28515625 543.4528125 151.28515625 544.1328125 C157.59814361 544.68510816 163.91122353 545.2363367 170.22436523 545.78686523 C172.36663869 545.97380093 174.50889178 546.16097017 176.65112305 546.34838867 C183.52855949 546.94998388 190.40644422 547.54597456 197.28515625 548.1328125 C198.36043076 548.22503586 198.36043076 548.22503586 199.45742798 548.31912231 C205.8565638 548.86287688 212.17488238 549.25533842 218.59765625 549.1953125 C219.87253906 549.18628906 221.14742187 549.17726563 222.4609375 549.16796875 C223.39292969 549.15636719 224.32492187 549.14476562 225.28515625 549.1328125 C225.28515625 549.7928125 225.28515625 550.4528125 225.28515625 551.1328125 C229.77508331 551.40327106 234.26524257 551.66944223 238.75561523 551.93237305 C240.26869846 552.02148928 241.78172421 552.11158919 243.29467773 552.20288086 C248.9566773 552.54401109 254.61991558 552.85059126 260.28515625 553.1328125 C261.68030457 553.20276932 261.68030457 553.20276932 263.1036377 553.2741394 C283.19820694 554.24143493 303.28472118 554.32043685 323.39794922 554.31811523 C327.06206207 554.31803411 330.72604952 554.32497426 334.39013672 554.33862305 C352.27052666 554.40386262 370.14993857 554.41206911 388.0112114 553.48320961 C389.44301418 553.40931479 390.87512264 553.3410927 392.30748367 553.27895164 C394.2611664 553.19065992 396.21346854 553.0732493 398.16552734 552.9543457 C399.25739349 552.8926973 400.34925964 552.83104889 401.47421265 552.76753235 C404.90694322 551.99241106 406.15731941 550.89871948 408.28515625 548.1328125 C409.78759703 541.24662557 409.38144874 534.15146539 409.28515625 527.1328125 C409.94515625 527.1328125 410.60515625 527.1328125 411.28515625 527.1328125 C412.07314312 516.66627978 412.85586565 506.1993675 413.63206482 495.73195362 C413.99273409 490.87034347 414.35514363 486.00887671 414.72167969 481.14770508 C415.07603763 476.44715837 415.4256291 471.74627825 415.77206421 467.04514122 C415.90434772 465.2610911 416.03828273 463.47716257 416.17398071 461.69336891 C416.92424521 451.81554949 417.49608712 442.04565664 417.28515625 432.1328125 C417.94515625 432.1328125 418.60515625 432.1328125 419.28515625 432.1328125 C419.39061768 430.82538086 419.4960791 429.51794922 419.60473633 428.17089844 C420.09788228 422.07450001 420.5965653 415.97856273 421.09765625 409.8828125 C421.23246399 408.24179565 421.23246399 408.24179565 421.36999512 406.56762695 C422.53274445 392.47454469 423.76553582 378.40330532 425.42114258 364.35839844 C426.05338727 358.90168809 426.41596781 353.62689802 426.28515625 348.1328125 C426.94515625 348.1328125 427.60515625 348.1328125 428.28515625 348.1328125 C429.14604103 341.71072045 429.99977566 335.28770649 430.84863281 328.86401367 C431.13801622 326.6805285 431.42901349 324.49725657 431.72167969 322.31420898 C432.14295893 319.16966036 432.5583579 316.02438128 432.97265625 312.87890625 C433.10389893 311.9088414 433.2351416 310.93877655 433.37036133 309.9393158 C434.02096778 304.95419656 434.43096252 300.16009107 434.28515625 295.1328125 C434.94515625 295.1328125 435.60515625 295.1328125 436.28515625 295.1328125 C436.94515625 289.1928125 437.60515625 283.2528125 438.28515625 277.1328125 C431.08493742 273.89873021 431.08493742 273.89873021 426.28515625 274.1328125 C426.28515625 273.4728125 426.28515625 272.8128125 426.28515625 272.1328125 C424.20515614 271.29119396 422.12101479 270.45980487 420.03515625 269.6328125 C418.875 269.16875 417.71484375 268.7046875 416.51953125 268.2265625 C413.22267259 266.91925017 413.22267259 266.91925017 409.28515625 267.1328125 C409.28515625 266.4728125 409.28515625 265.8128125 409.28515625 265.1328125 C407.34957026 264.46060899 405.41161253 263.79523173 403.47265625 263.1328125 C402.39371094 262.7615625 401.31476563 262.3903125 400.203125 262.0078125 C397.31394823 260.98919738 397.31394823 260.98919738 394.28515625 261.1328125 C394.28515625 260.4728125 394.28515625 259.8128125 394.28515625 259.1328125 C391.53704345 258.29277802 388.78696044 257.46059099 386.03515625 256.6328125 C385.25785156 256.39433594 384.48054688 256.15585937 383.6796875 255.91015625 C382.92558594 255.68457031 382.17148437 255.45898438 381.39453125 255.2265625 C380.70327148 255.01708984 380.01201172 254.80761719 379.29980469 254.59179688 C376.97952361 253.98472466 376.97952361 253.98472466 373.28515625 254.1328125 C373.28515625 253.4728125 373.28515625 252.8128125 373.28515625 252.1328125 C370.51574019 251.29450277 367.74480556 250.46199216 364.97265625 249.6328125 C364.18697266 249.39433594 363.40128906 249.15585937 362.59179688 248.91015625 C361.45581055 248.57177734 361.45581055 248.57177734 360.296875 248.2265625 C359.60037842 248.01708984 358.90388184 247.80761719 358.1862793 247.59179688 C356.12507792 247.01546986 356.12507792 247.01546986 353.28515625 247.1328125 C353.28515625 246.4728125 353.28515625 245.8128125 353.28515625 245.1328125 C350.68203633 244.46181266 348.07780227 243.79585912 345.47265625 243.1328125 C344.73466797 242.94203125 343.99667969 242.75125 343.23632812 242.5546875 C340.17980284 241.78018336 337.45142147 241.1328125 334.28515625 241.1328125 C334.28515625 240.4728125 334.28515625 239.8128125 334.28515625 239.1328125 C330.87027133 238.29206032 327.45298412 237.46151257 324.03515625 236.6328125 C323.06707031 236.39433594 322.09898437 236.15585937 321.1015625 235.91015625 C320.16699219 235.68457031 319.23242188 235.45898438 318.26953125 235.2265625 C317.41069336 235.01708984 316.55185547 234.80761719 315.66699219 234.59179688 C313.03480926 234.00666538 313.03480926 234.00666538 309.28515625 234.1328125 C309.28515625 233.4728125 309.28515625 232.8128125 309.28515625 232.1328125 C306.57868158 231.45770078 303.8703844 230.79253909 301.16015625 230.1328125 C300.01933594 229.84664062 300.01933594 229.84664062 298.85546875 229.5546875 C294.56926791 228.5200873 290.73114724 227.9055414 286.28515625 228.1328125 C286.28515625 227.4728125 286.28515625 226.8128125 286.28515625 226.1328125 C282.39105737 225.29123233 278.49462313 224.4610019 274.59765625 223.6328125 C273.49486328 223.39433594 272.39207031 223.15585937 271.25585938 222.91015625 C269.65581055 222.57177734 269.65581055 222.57177734 268.0234375 222.2265625 C267.04415283 222.01708984 266.06486816 221.80761719 265.0559082 221.59179688 C262.40559992 221.1527644 259.96521893 221.04725583 257.28515625 221.1328125 C257.28515625 220.4728125 257.28515625 219.8128125 257.28515625 219.1328125 C253.1421167 218.41328231 248.99784074 217.70149266 244.85229492 216.99658203 C243.44471153 216.75614878 242.03747558 216.5136715 240.63061523 216.26904297 C238.5983927 215.91605146 236.56499866 215.57063856 234.53125 215.2265625 C233.31107178 215.01708984 232.09089355 214.80761719 230.83374023 214.59179688 C227.27488311 214.13148374 223.8692724 214.05240608 220.28515625 214.1328125 C220.28515625 213.4728125 220.28515625 212.8128125 220.28515625 212.1328125 C216.3025952 211.55598548 212.31904112 210.98662569 208.33447266 210.42382812 C206.98230004 210.23181124 205.63040302 210.03784221 204.27880859 209.84179688 C197.24261791 208.82251131 190.40210245 207.8423249 183.28515625 208.1328125 C183.28515625 207.4728125 183.28515625 206.8128125 183.28515625 206.1328125 C177.41782988 205.57945802 171.55031142 205.02819973 165.68261719 204.47875977 C163.69265617 204.29214064 161.70274583 204.10498029 159.71289062 203.91723633 C138.35179999 201.73632805 138.35179999 201.73632805 116.91015625 201.0703125 C115.78867187 201.07708008 115.78867187 201.07708008 114.64453125 201.08398438 C112.85803548 201.09543627 111.07158269 201.11334781 109.28515625 201.1328125 C109.28515625 200.4728125 109.28515625 199.8128125 109.28515625 199.1328125 C85.71446263 197.97229692 62.16219153 198.01097581 38.5690918 198.06414795 C33.44580509 198.07455778 28.32251309 198.07898256 23.19921875 198.08398438 C13.22785116 198.09456454 3.25650635 198.11152765 -6.71484375 198.1328125 Z " fill="#070707" transform="translate(308.71484375,382.8671875)"/>
<path d="M0 0 C0.94875 0.350625 1.8975 0.70125 2.875 1.0625 C2.875 1.7225 2.875 2.3825 2.875 3.0625 C3.555625 3.165625 4.23625 3.26875 4.9375 3.375 C8.50415989 4.20975019 11.53722194 5.55722754 14.875 7.0625 C14.875 7.7225 14.875 8.3825 14.875 9.0625 C15.47828125 9.25585938 16.0815625 9.44921875 16.703125 9.6484375 C17.50234375 9.90882813 18.3015625 10.16921875 19.125 10.4375 C19.91390625 10.69273437 20.7028125 10.94796875 21.515625 11.2109375 C23.74127958 12.01423667 25.78431672 12.95961662 27.875 14.0625 C27.875 14.7225 27.875 15.3825 27.875 16.0625 C28.514375 16.145 29.15375 16.2275 29.8125 16.3125 C34.08041517 17.35770372 37.90607667 19.20341826 41.875 21.0625 C41.875 21.7225 41.875 22.3825 41.875 23.0625 C42.50148438 23.26746094 43.12796875 23.47242188 43.7734375 23.68359375 C44.99933594 24.08771484 44.99933594 24.08771484 46.25 24.5 C47.46816406 24.90025391 47.46816406 24.90025391 48.7109375 25.30859375 C50.875 26.0625 50.875 26.0625 52.875 27.0625 C52.875 27.7225 52.875 28.3825 52.875 29.0625 C53.46667969 29.25585938 54.05835938 29.44921875 54.66796875 29.6484375 C58.7896645 31.00664719 62.8700524 32.38300585 66.875 34.0625 C66.875 34.7225 66.875 35.3825 66.875 36.0625 C67.50148438 36.26746094 68.12796875 36.47242188 68.7734375 36.68359375 C69.59070313 36.95300781 70.40796875 37.22242188 71.25 37.5 C72.06210937 37.76683594 72.87421875 38.03367188 73.7109375 38.30859375 C75.875 39.0625 75.875 39.0625 77.875 40.0625 C77.875 40.7225 77.875 41.3825 77.875 42.0625 C78.46667969 42.25585938 79.05835938 42.44921875 79.66796875 42.6484375 C83.7896645 44.00664719 87.8700524 45.38300585 91.875 47.0625 C91.875 47.7225 91.875 48.3825 91.875 49.0625 C92.47828125 49.25585938 93.0815625 49.44921875 93.703125 49.6484375 C94.90195312 50.03902344 94.90195312 50.03902344 96.125 50.4375 C97.30835938 50.82035156 97.30835938 50.82035156 98.515625 51.2109375 C100.74127958 52.01423667 102.78431672 52.95961662 104.875 54.0625 C104.875 54.7225 104.875 55.3825 104.875 56.0625 C105.8959375 56.2171875 105.8959375 56.2171875 106.9375 56.375 C110.50415989 57.20975019 113.53722194 58.55722754 116.875 60.0625 C116.875 60.7225 116.875 61.3825 116.875 62.0625 C117.47828125 62.25585938 118.0815625 62.44921875 118.703125 62.6484375 C119.90195312 63.03902344 119.90195312 63.03902344 121.125 63.4375 C122.30835938 63.82035156 122.30835938 63.82035156 123.515625 64.2109375 C125.74127958 65.01423667 127.78431672 65.95961662 129.875 67.0625 C129.875 67.7225 129.875 68.3825 129.875 69.0625 C131.525 69.3925 133.175 69.7225 134.875 70.0625 C136.26695915 74.23837745 134.69823219 76.19724776 132.875 80.0625 C132.215 80.0625 131.555 80.0625 130.875 80.0625 C130.75898437 80.76117188 130.64296875 81.45984375 130.5234375 82.1796875 C129.80876035 85.35698712 128.74420668 88.17878202 127.5 91.1875 C126.86964844 92.73824219 126.86964844 92.73824219 126.2265625 94.3203125 C124.875 97.0625 124.875 97.0625 123.41015625 98.44921875 C120.9221235 101.06386894 119.94478727 104.42517366 118.6875 107.75 C118.41486328 108.45189453 118.14222656 109.15378906 117.86132812 109.87695312 C117.19214455 111.60274235 116.53261525 113.33226959 115.875 115.0625 C115.215 115.0625 114.555 115.0625 113.875 115.0625 C113.60236328 115.91521484 113.60236328 115.91521484 113.32421875 116.78515625 C111.73415366 121.66951003 109.97040222 126.37279027 107.875 131.0625 C107.215 131.0625 106.555 131.0625 105.875 131.0625 C105.70484375 131.6915625 105.5346875 132.320625 105.359375 132.96875 C103.72929647 138.72604865 101.70580597 143.79134406 98.875 149.0625 C98.215 149.0625 97.555 149.0625 96.875 149.0625 C96.69324219 149.63097656 96.51148438 150.19945312 96.32421875 150.78515625 C94.73415366 155.66951003 92.97040222 160.37279027 90.875 165.0625 C90.215 165.0625 89.555 165.0625 88.875 165.0625 C88.77316406 165.74699219 88.67132812 166.43148437 88.56640625 167.13671875 C87.73730008 170.64519626 86.3577768 173.62005526 84.8125 176.875 C84.26464844 178.03644531 83.71679688 179.19789063 83.15234375 180.39453125 C82.73082031 181.27496094 82.30929687 182.15539062 81.875 183.0625 C81.215 183.0625 80.555 183.0625 79.875 183.0625 C79.69324219 183.63097656 79.51148438 184.19945312 79.32421875 184.78515625 C77.73415366 189.66951003 75.97040222 194.37279027 73.875 199.0625 C73.215 199.0625 72.555 199.0625 71.875 199.0625 C71.77316406 199.74699219 71.67132812 200.43148437 71.56640625 201.13671875 C70.73730008 204.64519626 69.3577768 207.62005526 67.8125 210.875 C67.26464844 212.03644531 66.71679688 213.19789063 66.15234375 214.39453125 C65.73082031 215.27496094 65.30929687 216.15539062 64.875 217.0625 C64.215 217.0625 63.555 217.0625 62.875 217.0625 C62.76285156 217.75730469 62.65070313 218.45210937 62.53515625 219.16796875 C61.79053885 222.43282964 60.63099912 225.29850205 59.3125 228.375 C58.85746094 229.44363281 58.40242187 230.51226562 57.93359375 231.61328125 C57.58425781 232.42152344 57.23492188 233.22976563 56.875 234.0625 C56.215 234.0625 55.555 234.0625 54.875 234.0625 C54.70484375 234.619375 54.5346875 235.17625 54.359375 235.75 C52.64184063 241.15840609 50.52157745 246.04312896 47.875 251.0625 C47.215 251.0625 46.555 251.0625 45.875 251.0625 C45.77316406 251.73667969 45.67132812 252.41085937 45.56640625 253.10546875 C44.72098862 256.72118143 43.3126995 259.9952002 41.8125 263.375 C41.53083984 264.02017578 41.24917969 264.66535156 40.95898438 265.33007812 C40.2687257 266.90948358 39.57246802 268.48626493 38.875 270.0625 C38.215 270.0625 37.555 270.0625 36.875 270.0625 C36.545 271.3825 36.215 272.7025 35.875 274.0625 C34.225 273.7325 32.575 273.4025 30.875 273.0625 C30.875 272.4025 30.875 271.7425 30.875 271.0625 C30.194375 270.959375 29.51375 270.85625 28.8125 270.75 C25.24584011 269.91524981 22.21277806 268.56777246 18.875 267.0625 C18.875 266.4025 18.875 265.7425 18.875 265.0625 C18.27171875 264.86914062 17.6684375 264.67578125 17.046875 264.4765625 C16.24765625 264.21617187 15.4484375 263.95578125 14.625 263.6875 C13.83609375 263.43226563 13.0471875 263.17703125 12.234375 262.9140625 C10.00872042 262.11076333 7.96568328 261.16538338 5.875 260.0625 C5.875 259.4025 5.875 258.7425 5.875 258.0625 C5.235625 257.98 4.59625 257.8975 3.9375 257.8125 C-0.33041517 256.76729628 -4.15607667 254.92158174 -8.125 253.0625 C-8.125 252.4025 -8.125 251.7425 -8.125 251.0625 C-9.06472656 250.75505859 -9.06472656 250.75505859 -10.0234375 250.44140625 C-11.24933594 250.03728516 -11.24933594 250.03728516 -12.5 249.625 C-13.31210937 249.35816406 -14.12421875 249.09132813 -14.9609375 248.81640625 C-17.125 248.0625 -17.125 248.0625 -19.125 247.0625 C-19.125 246.4025 -19.125 245.7425 -19.125 245.0625 C-19.764375 244.98 -20.40375 244.8975 -21.0625 244.8125 C-25.33041517 243.76729628 -29.15607667 241.92158174 -33.125 240.0625 C-33.125 239.4025 -33.125 238.7425 -33.125 238.0625 C-34.06472656 237.75505859 -34.06472656 237.75505859 -35.0234375 237.44140625 C-36.24933594 237.03728516 -36.24933594 237.03728516 -37.5 236.625 C-38.31210937 236.35816406 -39.12421875 236.09132813 -39.9609375 235.81640625 C-42.125 235.0625 -42.125 235.0625 -44.125 234.0625 C-44.125 233.4025 -44.125 232.7425 -44.125 232.0625 C-44.71667969 231.86914062 -45.30835938 231.67578125 -45.91796875 231.4765625 C-50.0396645 230.11835281 -54.1200524 228.74199415 -58.125 227.0625 C-58.125 226.4025 -58.125 225.7425 -58.125 225.0625 C-59.15625 224.794375 -60.1875 224.52625 -61.25 224.25 C-64.7781031 223.23889728 -67.92751308 221.88963539 -71.125 220.0625 C-71.455 219.4025 -71.785 218.7425 -72.125 218.0625 C-74.46538186 216.93147474 -74.46538186 216.93147474 -77.1875 215.9375 C-78.10660156 215.58429688 -79.02570312 215.23109375 -79.97265625 214.8671875 C-80.68292969 214.60164062 -81.39320313 214.33609375 -82.125 214.0625 C-82.125 213.4025 -82.125 212.7425 -82.125 212.0625 C-82.72828125 211.86914062 -83.3315625 211.67578125 -83.953125 211.4765625 C-84.75234375 211.21617187 -85.5515625 210.95578125 -86.375 210.6875 C-87.16390625 210.43226563 -87.9528125 210.17703125 -88.765625 209.9140625 C-90.99127958 209.11076333 -93.03431672 208.16538338 -95.125 207.0625 C-95.125 206.4025 -95.125 205.7425 -95.125 205.0625 C-98.425 204.0725 -101.725 203.0825 -105.125 202.0625 C-104.23325333 198.49551331 -103.10196469 195.6282701 -101.5625 192.3125 C-101.10746094 191.32765625 -100.65242187 190.3428125 -100.18359375 189.328125 C-99.83425781 188.58046875 -99.48492188 187.8328125 -99.125 187.0625 C-98.465 187.0625 -97.805 187.0625 -97.125 187.0625 C-97.01027344 186.36640625 -96.89554688 185.6703125 -96.77734375 184.953125 C-96.04980689 181.72930898 -94.95396002 178.86402978 -93.6875 175.8125 C-93.25566406 174.75546875 -92.82382812 173.6984375 -92.37890625 172.609375 C-91.125 170.0625 -91.125 170.0625 -89.125 169.0625 C-88.19486518 167.33908892 -88.19486518 167.33908892 -87.3984375 165.24609375 C-87.0890625 164.48232422 -86.7796875 163.71855469 -86.4609375 162.93164062 C-86.14382813 162.12919922 -85.82671875 161.32675781 -85.5 160.5 C-85.17515625 159.69369141 -84.8503125 158.88738281 -84.515625 158.05664062 C-83.71265894 156.0610338 -82.91804298 154.06207093 -82.125 152.0625 C-81.465 152.0625 -80.805 152.0625 -80.125 152.0625 C-79.85236328 151.20978516 -79.85236328 151.20978516 -79.57421875 150.33984375 C-77.98415366 145.45548997 -76.22040222 140.75220973 -74.125 136.0625 C-73.465 136.0625 -72.805 136.0625 -72.125 136.0625 C-72.02316406 135.55203125 -71.92132812 135.0415625 -71.81640625 134.515625 C-70.86820834 131.15139737 -69.46186428 128.00733633 -68.0625 124.8125 C-67.78083984 124.1628125 -67.49917969 123.513125 -67.20898438 122.84375 C-66.5170615 121.24880914 -65.821401 119.65549066 -65.125 118.0625 C-64.465 118.0625 -63.805 118.0625 -63.125 118.0625 C-62.94324219 117.48242188 -62.76148438 116.90234375 -62.57421875 116.3046875 C-61.0831894 111.67102707 -59.44166424 107.36487645 -57.125 103.0625 C-56.465 103.0625 -55.805 103.0625 -55.125 103.0625 C-55.02316406 102.37800781 -54.92132812 101.69351563 -54.81640625 100.98828125 C-53.98730008 97.47980374 -52.6077768 94.50494474 -51.0625 91.25 C-50.51464844 90.08855469 -49.96679688 88.92710937 -49.40234375 87.73046875 C-48.77005859 86.40982422 -48.77005859 86.40982422 -48.125 85.0625 C-47.465 85.0625 -46.805 85.0625 -46.125 85.0625 C-45.95484375 84.52882813 -45.7846875 83.99515625 -45.609375 83.4453125 C-43.69036676 77.5453829 -41.48445761 71.79945531 -39.125 66.0625 C-38.465 66.0625 -37.805 66.0625 -37.125 66.0625 C-36.8775 65.258125 -36.63 64.45375 -36.375 63.625 C-34.86421353 59.31925857 -33.02311144 55.20885993 -31.125 51.0625 C-30.465 51.0625 -29.805 51.0625 -29.125 51.0625 C-28.95484375 50.51722656 -28.7846875 49.97195312 -28.609375 49.41015625 C-26.79959186 43.77865022 -24.62154622 38.42310431 -22.125 33.0625 C-21.465 33.0625 -20.805 33.0625 -20.125 33.0625 C-19.94324219 32.48242188 -19.76148438 31.90234375 -19.57421875 31.3046875 C-18.0831894 26.67102707 -16.44166424 22.36487645 -14.125 18.0625 C-13.465 18.0625 -12.805 18.0625 -12.125 18.0625 C-11.95484375 17.51722656 -11.7846875 16.97195312 -11.609375 16.41015625 C-9.82008334 10.84241357 -7.95730011 5.19962732 -5.125 0.0625 C-3.125 -0.9375 -3.125 -0.9375 0 0 Z " fill="#FAFAFA" transform="translate(629.125,132.9375)"/>
<path d="M0 0 C0 0.66 0 1.32 0 2 C1.12921875 2.05607422 1.12921875 2.05607422 2.28125 2.11328125 C11.37281704 2.67598746 20.09518686 4.18245791 29 6 C29 6.66 29 7.32 29 8 C30.299375 8.0825 31.59875 8.165 32.9375 8.25 C40.77750565 9.00798034 48.37501319 11.09817614 56 13 C56 13.66 56 14.32 56 15 C57.010625 15.0825 58.02125 15.165 59.0625 15.25 C65.84940284 16.07228298 72.43097306 18.16101459 79 20 C79 20.66 79 21.32 79 22 C79.65226563 22.12117188 80.30453125 22.24234375 80.9765625 22.3671875 C85.78646342 23.28943989 90.39025465 24.30167277 95 26 C95 26.66 95 27.32 95 28 C95.92619141 28.16435547 95.92619141 28.16435547 96.87109375 28.33203125 C102.77712501 29.4377266 108.35197559 30.95361435 114 33 C114 33.66 114 34.32 114 35 C115.175625 35.28875 116.35125 35.5775 117.5625 35.875 C121.4018927 36.83313721 125.2013318 37.89205511 129 39 C129 39.66 129 40.32 129 41 C129.99580078 41.29003906 129.99580078 41.29003906 131.01171875 41.5859375 C139.78207381 44.17223199 139.78207381 44.17223199 144 46 C144 46.66 144 47.32 144 48 C144.71542969 48.12246094 145.43085938 48.24492187 146.16796875 48.37109375 C149.05112713 49.01135375 151.58592473 49.93551556 154.3125 51.0625 C155.19550781 51.42472656 156.07851563 51.78695312 156.98828125 52.16015625 C157.65214844 52.43730469 158.31601562 52.71445312 159 53 C159 53.66 159 54.32 159 55 C159.680625 55.103125 160.36125 55.20625 161.0625 55.3125 C164.62915989 56.14725019 167.66222194 57.49472754 171 59 C171 59.66 171 60.32 171 61 C171.60328125 61.19335938 172.2065625 61.38671875 172.828125 61.5859375 C173.62734375 61.84632813 174.4265625 62.10671875 175.25 62.375 C176.03890625 62.63023437 176.8278125 62.88546875 177.640625 63.1484375 C179.86627958 63.95173667 181.90931672 64.89711662 184 66 C184 66.66 184 67.32 184 68 C184.680625 68.103125 185.36125 68.20625 186.0625 68.3125 C190.11933561 69.26197216 194.45567213 70.40461997 197.41796875 73.46484375 C199.34616101 75.33590439 201.21801862 76.14960203 203.6875 77.1875 C204.49574219 77.53167969 205.30398438 77.87585938 206.13671875 78.23046875 C206.75160156 78.48441406 207.36648438 78.73835938 208 79 C208 79.66 208 80.32 208 81 C208.845625 81.268125 209.69125 81.53625 210.5625 81.8125 C220.35334088 85.19479049 220.35334088 85.19479049 224 89 C225.97620986 90.04622875 227.9737129 91.05439935 230 92 C230 92.66 230 93.32 230 94 C230.70125 94.268125 231.4025 94.53625 232.125 94.8125 C235.1649824 96.0681449 238.0727774 97.50235123 241 99 C241 99.66 241 100.32 241 101 C241.928125 101.28875 242.85625 101.5775 243.8125 101.875 C247 103 247 103 250 105 C250 105.66 250 106.32 250 107 C250.886875 107.268125 251.77375 107.53625 252.6875 107.8125 C260.26436782 110.52873563 260.26436782 110.52873563 262 114 C263.75936265 115.06510435 265.5716434 115.97376213 267.40625 116.90234375 C269 118 269 118 270 121 C271.32148827 121.37756808 272.65835921 121.7018576 274 122 C276.75 123.4375 276.75 123.4375 279 125 C279 125.66 279 126.32 279 127 C279.721875 127.268125 280.44375 127.53625 281.1875 127.8125 C283.99766383 128.99901362 286.48416557 130.27485639 289 132 C289 132.66 289 133.32 289 134 C289.598125 134.28875 290.19625 134.5775 290.8125 134.875 C293 136 293 136 296 138 C296 138.66 296 139.32 296 140 C296.639375 140.12375 297.27875 140.2475 297.9375 140.375 C298.618125 140.58125 299.29875 140.7875 300 141 C300.33 141.66 300.66 142.32 301 143 C296.545 141.515 296.545 141.515 292 140 C292 139.34 292 138.68 292 138 C291.37351562 137.79503906 290.74703125 137.59007812 290.1015625 137.37890625 C288.87566406 136.97478516 288.87566406 136.97478516 287.625 136.5625 C286.81289063 136.29566406 286.00078125 136.02882813 285.1640625 135.75390625 C283 135 283 135 281 134 C281 133.34 281 132.68 281 132 C280.195625 131.9175 279.39125 131.835 278.5625 131.75 C274.04065795 130.79803325 270.15297299 128.98419821 266 127 C266 126.34 266 125.68 266 125 C265.31292969 124.79503906 264.62585938 124.59007812 263.91796875 124.37890625 C263.01691406 124.10949219 262.11585938 123.84007812 261.1875 123.5625 C260.29417969 123.29566406 259.40085937 123.02882813 258.48046875 122.75390625 C256.64526945 122.19612127 254.81966274 121.60655425 253 121 C253 120.34 253 119.68 253 119 C252.00419922 118.70996094 252.00419922 118.70996094 250.98828125 118.4140625 C242.21792619 115.82776801 242.21792619 115.82776801 238 114 C238 113.34 238 112.68 238 112 C237.236875 111.9175 236.47375 111.835 235.6875 111.75 C230.5850883 110.71222135 225.8544506 108.85712968 221 107 C221 106.34 221 105.68 221 105 C220.195625 104.896875 219.39125 104.79375 218.5625 104.6875 C214.21752614 103.84899627 210.16542473 102.47178341 206 101 C206 100.34 206 99.68 206 99 C205.18208984 98.83564453 205.18208984 98.83564453 204.34765625 98.66796875 C198.74464935 97.48990063 193.3945613 95.912965 188 94 C188 93.34 188 92.68 188 92 C187.05125 91.896875 186.1025 91.79375 185.125 91.6875 C180.26508446 91.0089081 175.66196126 89.4914524 171 88 C171 87.34 171 86.68 171 86 C169.989375 85.9175 168.97875 85.835 167.9375 85.75 C161.15059716 84.92771702 154.56902694 82.83898541 148 81 C148 80.34 148 79.68 148 79 C146.72253906 78.87753906 145.44507813 78.75507813 144.12890625 78.62890625 C138.98557317 78.0574248 133.98822899 77.04638775 128.9375 75.9375 C128.07189453 75.75123047 127.20628906 75.56496094 126.31445312 75.37304688 C124.20877549 74.91933733 122.10425993 74.46023996 120 74 C120 73.34 120 72.68 120 72 C119.1020874 71.91890991 119.1020874 71.91890991 118.18603516 71.83618164 C111.87856224 71.23962781 105.63512406 70.40665995 99.375 69.4375 C98.46621094 69.29892578 97.55742187 69.16035156 96.62109375 69.01757812 C94.4137033 68.68066063 92.20669409 68.34144335 90 68 C90 67.34 90 66.68 90 66 C89.23993652 65.94521484 88.47987305 65.89042969 87.69677734 65.83398438 C77.68133702 65.09042068 67.69518752 64.11064635 57.703125 63.10546875 C48.80789911 62.22659913 39.92107235 61.54212057 31 61 C31 60.34 31 59.68 31 59 C0.64 59 -29.72 59 -61 59 C-61 59.66 -61 60.32 -61 61 C-61.61875 61.515625 -62.2375 62.03125 -62.875 62.5625 C-68.53295033 69.05250185 -68.034977 81.63304531 -69 90 C-69.66 90 -70.32 90 -71 90 C-71.03738281 90.79019531 -71.07476562 91.58039063 -71.11328125 92.39453125 C-71.5437051 99.7792542 -72.35238509 107.00742326 -73.5 114.3125 C-73.63059814 115.15466064 -73.76119629 115.99682129 -73.89575195 116.86450195 C-74.87123621 122.87123621 -74.87123621 122.87123621 -76 124 C-88.86486691 124.84895061 -101.33337882 123.10395357 -114 121 C-114 120.34 -114 119.68 -114 119 C-115.258125 118.9175 -116.51625 118.835 -117.8125 118.75 C-124.75622936 117.97969722 -132.12142835 116.20746412 -137 111 C-138.11375 110.38125 -139.2275 109.7625 -140.375 109.125 C-146.26545631 105.84564932 -150.6137802 100.78424315 -154 95 C-154.8125 92.0625 -154.8125 92.0625 -155 90 C-155.66 90 -156.32 90 -157 90 C-161.47575394 77.1854902 -161.02834705 64.8763236 -157 52 C-156.34 52 -155.68 52 -155 52 C-154.896875 51.46375 -154.79375 50.9275 -154.6875 50.375 C-151.86190663 40.61385928 -145.72544571 34.18035657 -138 28 C-137.154375 27.113125 -136.30875 26.22625 -135.4375 25.3125 C-133.00468846 23.00444803 -132.10732182 22.66585468 -129 22 C-128.67 21.01 -128.34 20.02 -128 19 C-126.22265625 17.83203125 -126.22265625 17.83203125 -124.0625 16.8125 C-123.35222656 16.46832031 -122.64195312 16.12414062 -121.91015625 15.76953125 C-120 15 -120 15 -118 15 C-118 14.34 -118 13.68 -118 13 C-116.08717875 12.15787744 -114.16957527 11.32661136 -112.25 10.5 C-111.18265625 10.0359375 -110.1153125 9.571875 -109.015625 9.09375 C-106 8 -106 8 -102 8 C-102 7.34 -102 6.68 -102 6 C-99.43923903 5.32595716 -96.87673417 4.660586 -94.3125 4 C-93.59126953 3.80921875 -92.87003906 3.6184375 -92.12695312 3.421875 C-88.33149039 2.45134572 -84.95384561 1.75044761 -81 2 C-81 1.34 -81 0.68 -81 0 C-53.80080019 -3.9737838 -27.23019758 -3.58547086 0 0 Z " fill="#FAFAFA" transform="translate(362,411)"/>
<path d="M0 0 C0.99 0 1.98 0 3 0 C3 0.66 3 1.32 3 2 C4.010625 2.103125 5.02125 2.20625 6.0625 2.3125 C10.21218208 3.03704767 13.21356263 4.22269266 17 6 C17 6.66 17 7.32 17 8 C17.60328125 8.19335938 18.2065625 8.38671875 18.828125 8.5859375 C20.02695312 8.97652344 20.02695312 8.97652344 21.25 9.375 C22.03890625 9.63023438 22.8278125 9.88546875 23.640625 10.1484375 C25.86627958 10.95173667 27.90931672 11.89711662 30 13 C30 13.66 30 14.32 30 15 C30.639375 15.0825 31.27875 15.165 31.9375 15.25 C36.20541517 16.29520372 40.03107667 18.14091826 44 20 C44 20.66 44 21.32 44 22 C44.62648438 22.20496094 45.25296875 22.40992187 45.8984375 22.62109375 C47.12433594 23.02521484 47.12433594 23.02521484 48.375 23.4375 C49.59316406 23.83775391 49.59316406 23.83775391 50.8359375 24.24609375 C53 25 53 25 55 26 C55 26.66 55 27.32 55 28 C55.639375 28.0825 56.27875 28.165 56.9375 28.25 C61.20541517 29.29520372 65.03107667 31.14091826 69 33 C69 33.66 69 34.32 69 35 C70.5778125 35.433125 70.5778125 35.433125 72.1875 35.875 C75.22818711 36.77225193 78.08712344 37.76423419 81 39 C81 39.66 81 40.32 81 41 C81.639375 41.0825 82.27875 41.165 82.9375 41.25 C87.20541517 42.29520372 91.03107667 44.14091826 95 46 C95 46.66 95 47.32 95 48 C95.59167969 48.19335938 96.18335938 48.38671875 96.79296875 48.5859375 C100.9146645 49.94414719 104.9950524 51.32050585 109 53 C109 53.66 109 54.32 109 55 C109.62648438 55.20496094 110.25296875 55.40992188 110.8984375 55.62109375 C111.71570313 55.89050781 112.53296875 56.15992188 113.375 56.4375 C114.18710937 56.70433594 114.99921875 56.97117188 115.8359375 57.24609375 C118 58 118 58 120 59 C120 59.66 120 60.32 120 61 C120.60328125 61.19335938 121.2065625 61.38671875 121.828125 61.5859375 C123.02695312 61.97652344 123.02695312 61.97652344 124.25 62.375 C125.43335938 62.75785156 125.43335938 62.75785156 126.640625 63.1484375 C128.86627958 63.95173667 130.90931672 64.89711662 133 66 C133 66.66 133 67.32 133 68 C133.680625 68.103125 134.36125 68.20625 135.0625 68.3125 C138.62915989 69.14725019 141.66222194 70.49472754 145 72 C145 72.66 145 73.32 145 74 C145.60328125 74.19335938 146.2065625 74.38671875 146.828125 74.5859375 C147.62734375 74.84632813 148.4265625 75.10671875 149.25 75.375 C150.03890625 75.63023437 150.8278125 75.88546875 151.640625 76.1484375 C153.86627958 76.95173667 155.90931672 77.89711662 158 79 C158 79.66 158 80.32 158 81 C158.66 81.0825 159.32 81.165 160 81.25 C165.39695055 82.59923764 169.63733176 84.56919835 173.5 88.625 C176.22166645 94.74874952 175.91051211 99.46846055 173.6484375 105.7578125 C172.21149103 109.22744861 170.63627147 112.62032023 169 116 C168.34 116 167.68 116 167 116 C166.74476563 116.80050781 166.74476563 116.80050781 166.484375 117.6171875 C164.56536676 123.5171171 162.35945761 129.26304469 160 135 C159.34 135 158.68 135 158 135 C157.62875 136.2065625 157.62875 136.2065625 157.25 137.4375 C155.73921353 141.74324143 153.89811144 145.85364007 152 150 C151.34 150 150.68 150 150 150 C149.82984375 150.61746094 149.6596875 151.23492187 149.484375 151.87109375 C147.77814576 157.8338204 145.66418883 163.40114631 143 169 C142.34 169 141.68 169 141 169 C140.81824219 169.58007812 140.63648438 170.16015625 140.44921875 170.7578125 C138.9581894 175.39147293 137.31666424 179.69762355 135 184 C134.34 184 133.68 184 133 184 C132.89816406 184.68449219 132.79632812 185.36898437 132.69140625 186.07421875 C131.86230008 189.58269626 130.4827768 192.55755526 128.9375 195.8125 C128.38964844 196.97394531 127.84179688 198.13539063 127.27734375 199.33203125 C126.85582031 200.21246094 126.43429687 201.09289062 126 202 C125.34 202 124.68 202 124 202 C123.72736328 202.8353125 123.72736328 202.8353125 123.44921875 203.6875 C121.75137815 208.84196991 119.93577765 213.93010615 118 219 C117.34 219 116.68 219 116 219 C115.82984375 219.556875 115.6596875 220.11375 115.484375 220.6875 C113.76684063 226.09590609 111.64657745 230.98062896 109 236 C108.34 236 107.68 236 107 236 C106.88785156 236.70511719 106.77570313 237.41023437 106.66015625 238.13671875 C105.93685092 241.27389512 104.80542309 243.90127906 103.4375 246.8125 C102.98246094 247.78832031 102.52742187 248.76414062 102.05859375 249.76953125 C101.53458984 250.87361328 101.53458984 250.87361328 101 252 C100.34 252 99.68 252 99 252 C98.82984375 252.54527344 98.6596875 253.09054687 98.484375 253.65234375 C96.67459186 259.28384978 94.49654622 264.63939569 92 270 C91.34 270 90.68 270 90 270 C89.83177734 271.05767578 89.83177734 271.05767578 89.66015625 272.13671875 C88.93685092 275.27389512 87.80542309 277.90127906 86.4375 280.8125 C85.98246094 281.78832031 85.52742187 282.76414062 85.05859375 283.76953125 C84.70925781 284.50558594 84.35992188 285.24164063 84 286 C83.34 286 82.68 286 82 286 C81.82984375 286.53367187 81.6596875 287.06734375 81.484375 287.6171875 C79.56536676 293.5171171 77.35945761 299.26304469 75 305 C74.34 305 73.68 305 73 305 C72.71382812 305.71542969 72.42765625 306.43085938 72.1328125 307.16796875 C70.421875 311.4453125 68.7109375 315.72265625 67 320 C66.34 320 65.68 320 65 320 C64.81824219 320.59167969 64.63648438 321.18335938 64.44921875 321.79296875 C60.92288433 332.87831748 60.92288433 332.87831748 56.75 335.3125 C49.01427681 337.2464308 43.13615442 334.89059419 36 332 C36 331.34 36 330.68 36 330 C35.38511719 329.80664062 34.77023437 329.61328125 34.13671875 329.4140625 C32.92435547 329.02347656 32.92435547 329.02347656 31.6875 328.625 C30.88699219 328.36976563 30.08648438 328.11453125 29.26171875 327.8515625 C27 327 27 327 24 325 C24 324.34 24 323.68 24 323 C23.360625 322.9175 22.72125 322.835 22.0625 322.75 C17.79458483 321.70479628 13.96892333 319.85908174 10 318 C10 317.34 10 316.68 10 316 C9.37351562 315.79503906 8.74703125 315.59007812 8.1015625 315.37890625 C6.87566406 314.97478516 6.87566406 314.97478516 5.625 314.5625 C4.81289063 314.29566406 4.00078125 314.02882813 3.1640625 313.75390625 C1 313 1 313 -1 312 C-1 311.34 -1 310.68 -1 310 C-1.639375 309.9175 -2.27875 309.835 -2.9375 309.75 C-7.20541517 308.70479628 -11.03107667 306.85908174 -15 305 C-15 304.34 -15 303.68 -15 303 C-15.93972656 302.69255859 -15.93972656 302.69255859 -16.8984375 302.37890625 C-18.12433594 301.97478516 -18.12433594 301.97478516 -19.375 301.5625 C-20.18710937 301.29566406 -20.99921875 301.02882813 -21.8359375 300.75390625 C-24 300 -24 300 -26 299 C-26 298.34 -26 297.68 -26 297 C-26.639375 296.9175 -27.27875 296.835 -27.9375 296.75 C-32.20541517 295.70479628 -36.03107667 293.85908174 -40 292 C-40 291.34 -40 290.68 -40 290 C-40.60328125 289.80664062 -41.2065625 289.61328125 -41.828125 289.4140625 C-42.62734375 289.15367187 -43.4265625 288.89328125 -44.25 288.625 C-45.03890625 288.36976563 -45.8278125 288.11453125 -46.640625 287.8515625 C-48.86627958 287.04826333 -50.90931672 286.10288338 -53 285 C-53 284.34 -53 283.68 -53 283 C-53.680625 282.896875 -54.36125 282.79375 -55.0625 282.6875 C-58.62915989 281.85274981 -61.66222194 280.50527246 -65 279 C-65 278.34 -65 277.68 -65 277 C-65.60328125 276.80664062 -66.2065625 276.61328125 -66.828125 276.4140625 C-68.02695312 276.02347656 -68.02695312 276.02347656 -69.25 275.625 C-70.43335938 275.24214844 -70.43335938 275.24214844 -71.640625 274.8515625 C-73.86627958 274.04826333 -75.90931672 273.10288338 -78 272 C-78 271.34 -78 270.68 -78 270 C-78.680625 269.896875 -79.36125 269.79375 -80.0625 269.6875 C-83.62915989 268.85274981 -86.66222194 267.50527246 -90 266 C-90 265.34 -90 264.68 -90 264 C-90.60328125 263.80664062 -91.2065625 263.61328125 -91.828125 263.4140625 C-93.02695312 263.02347656 -93.02695312 263.02347656 -94.25 262.625 C-95.03890625 262.36976563 -95.8278125 262.11453125 -96.640625 261.8515625 C-98.86627958 261.04826333 -100.90931672 260.10288338 -103 259 C-103 258.34 -103 257.68 -103 257 C-103.639375 256.9175 -104.27875 256.835 -104.9375 256.75 C-110.95542092 255.27622345 -117.12685688 253.05192581 -121 248 C-121 247.34 -121 246.68 -121 246 C-121.66 246 -122.32 246 -123 246 C-123.93249614 243.20251159 -124.13476152 241.45679119 -124.125 238.5625 C-124.12757813 237.80066406 -124.13015625 237.03882813 -124.1328125 236.25390625 C-124.00276015 234.04684141 -123.60856199 232.12030724 -123 230 C-122.34 230 -121.68 230 -121 230 C-120.81824219 229.41992188 -120.63648438 228.83984375 -120.44921875 228.2421875 C-118.9581894 223.60852707 -117.31666424 219.30237645 -115 215 C-114.34 215 -113.68 215 -113 215 C-112.82984375 214.46632813 -112.6596875 213.93265625 -112.484375 213.3828125 C-110.56536676 207.4828829 -108.35945761 201.73695531 -106 196 C-105.34 196 -104.68 196 -104 196 C-103.7525 195.01 -103.505 194.02 -103.25 193 C-102.04187859 188.71904804 -100.09178706 184.90940785 -98 181 C-97.34 181 -96.68 181 -96 181 C-95.89816406 180.31550781 -95.79632812 179.63101563 -95.69140625 178.92578125 C-94.86230008 175.41730374 -93.4827768 172.44244474 -91.9375 169.1875 C-91.38964844 168.02605469 -90.84179688 166.86460937 -90.27734375 165.66796875 C-89.64505859 164.34732422 -89.64505859 164.34732422 -89 163 C-88.34 163 -87.68 163 -87 163 C-86.81824219 162.43152344 -86.63648438 161.86304688 -86.44921875 161.27734375 C-84.85915366 156.39298997 -83.09540222 151.68970973 -81 147 C-80.34 147 -79.68 147 -79 147 C-78.89816406 146.31550781 -78.79632812 145.63101563 -78.69140625 144.92578125 C-77.86230008 141.41730374 -76.4827768 138.44244474 -74.9375 135.1875 C-74.38964844 134.02605469 -73.84179688 132.86460937 -73.27734375 131.66796875 C-72.64505859 130.34732422 -72.64505859 130.34732422 -72 129 C-71.34 129 -70.68 129 -70 129 C-69.81824219 128.35933594 -69.63648438 127.71867187 -69.44921875 127.05859375 C-67.93729955 121.85604103 -66.24999329 116.92855673 -64 112 C-63.34 112 -62.68 112 -62 112 C-61.82984375 111.443125 -61.6596875 110.88625 -61.484375 110.3125 C-59.76684063 104.90409391 -57.64657745 100.01937104 -55 95 C-54.34 95 -53.68 95 -53 95 C-52.83177734 93.95779297 -52.83177734 93.95779297 -52.66015625 92.89453125 C-51.91553885 89.62967036 -50.75599912 86.76399795 -49.4375 83.6875 C-48.98246094 82.61886719 -48.52742187 81.55023438 -48.05859375 80.44921875 C-47.53458984 79.23685547 -47.53458984 79.23685547 -47 78 C-46.34 78 -45.68 78 -45 78 C-44.82984375 77.443125 -44.6596875 76.88625 -44.484375 76.3125 C-42.76684063 70.90409391 -40.64657745 66.01937104 -38 61 C-37.34 61 -36.68 61 -36 61 C-35.82597656 59.95585937 -35.82597656 59.95585937 -35.6484375 58.890625 C-34.92786673 55.67844204 -33.86418773 52.79915283 -32.625 49.75 C-32.20476562 48.69296875 -31.78453125 47.6359375 -31.3515625 46.546875 C-30 44 -30 44 -27 43 C-26.0767053 40.90656135 -26.0767053 40.90656135 -25.5 38.375 C-24.32081012 34.03258647 -22.86694923 30.08950783 -21 26 C-20.34 26 -19.68 26 -19 26 C-18.82984375 25.443125 -18.6596875 24.88625 -18.484375 24.3125 C-16.76684063 18.90409391 -14.64657745 14.01937104 -12 9 C-11.34 9 -10.68 9 -10 9 C-9.9175 8.401875 -9.835 7.80375 -9.75 7.1875 C-8.75971603 4.29917175 -7.65063227 3.47257348 -5 2 C-2.25 1.8125 -2.25 1.8125 0 2 C0 1.34 0 0.68 0 0 Z M7 31 C3.20429971 33.53046686 2.36315246 36.4032145 0.8125 40.5 C0.53986328 41.18964844 0.26722656 41.87929687 -0.01367188 42.58984375 C-1.49308001 46.18833584 -1.49308001 46.18833584 -2 50 C-3.485 50.495 -3.485 50.495 -5 51 C-6.47592027 53.71041175 -6.47592027 53.71041175 -7.6875 56.9375 C-8.12449219 58.01902344 -8.56148437 59.10054687 -9.01171875 60.21484375 C-10.11146995 62.82159266 -10.11146995 62.82159266 -10 65 C-10.66 65 -11.32 65 -12 65 C-13.17112946 67.62309099 -14.33705964 70.24828142 -15.5 72.875 C-15.83386719 73.62136719 -16.16773438 74.36773437 -16.51171875 75.13671875 C-16.82753906 75.85214844 -17.14335938 76.56757813 -17.46875 77.3046875 C-17.90864258 78.2944458 -17.90864258 78.2944458 -18.35742188 79.30419922 C-19.11811255 81.00946207 -19.11811255 81.00946207 -19 83 C-19.66 83 -20.32 83 -21 83 C-22.00460531 85.12282669 -23.00355602 87.24833021 -24 89.375 C-24.556875 90.55835938 -25.11375 91.74171875 -25.6875 92.9609375 C-27.13216041 95.75428575 -27.13216041 95.75428575 -27 98 C-27.66 98 -28.32 98 -29 98 C-30.17094005 100.7899439 -31.33690927 103.58178597 -32.5 106.375 C-32.83386719 107.1690625 -33.16773438 107.963125 -33.51171875 108.78125 C-33.82753906 109.54179687 -34.14335938 110.30234375 -34.46875 111.0859375 C-34.76201172 111.7876709 -35.05527344 112.4894043 -35.35742188 113.21240234 C-36.11275781 114.99708561 -36.11275781 114.99708561 -36 117 C-36.99 117.33 -37.98 117.66 -39 118 C-40.2053746 120.29343781 -41.22132604 122.48461407 -42.1875 124.875 C-42.46013672 125.51308594 -42.73277344 126.15117187 -43.01367188 126.80859375 C-44.2167376 129.69715757 -45 131.8415827 -45 135 C-45.66 135 -46.32 135 -47 135 C-48.00460531 137.12282669 -49.00355602 139.24833021 -50 141.375 C-50.8353125 143.15003906 -50.8353125 143.15003906 -51.6875 144.9609375 C-53.13216041 147.75428575 -53.13216041 147.75428575 -53 150 C-53.66 150 -54.32 150 -55 150 C-55.98293267 152.24842091 -56.96144466 154.49859547 -57.9375 156.75 C-58.21529297 157.38421875 -58.49308594 158.0184375 -58.77929688 158.671875 C-60.10720894 161.74367158 -61.34366167 164.71000026 -62 168 C-62.66 168 -63.32 168 -64 168 C-65.0044134 170.2898234 -66.00367612 172.5816599 -67 174.875 C-67.28617188 175.52597656 -67.57234375 176.17695313 -67.8671875 176.84765625 C-69.45925765 180.29638339 -69.45925765 180.29638339 -70 184 C-70.66 184 -71.32 184 -72 184 C-72.47050781 185.19238281 -72.94101562 186.38476562 -73.42578125 187.61328125 C-74.05428457 189.17984922 -74.68321308 190.74624664 -75.3125 192.3125 C-75.62123047 193.09818359 -75.92996094 193.88386719 -76.24804688 194.69335938 C-76.55419922 195.45068359 -76.86035156 196.20800781 -77.17578125 196.98828125 C-77.45333252 197.68477783 -77.73088379 198.38127441 -78.0168457 199.09887695 C-79.0844354 201.16327252 -80.34001182 202.39367523 -82 204 C-82.96911794 205.96553498 -83.85948258 207.97098435 -84.6875 210 C-85.34298828 211.5778125 -85.34298828 211.5778125 -86.01171875 213.1875 C-87.16575876 215.97487736 -87.16575876 215.97487736 -87 219 C-87.66 219 -88.32 219 -89 219 C-90.00732399 220.93370231 -91.00563288 222.87210306 -92 224.8125 C-92.8353125 226.43091797 -92.8353125 226.43091797 -93.6875 228.08203125 C-95.20510619 230.92273466 -95.20510619 230.92273466 -95 234 C-91.7 234.99 -88.4 235.98 -85 237 C-85 237.66 -85 238.32 -85 239 C-83.21046815 239.83790789 -81.41830305 240.67019396 -79.625 241.5 C-78.62726562 241.9640625 -77.62953125 242.428125 -76.6015625 242.90625 C-74.16307374 244.1291873 -74.16307374 244.1291873 -72 244 C-72 244.66 -72 245.32 -72 246 C-71.28972656 246.26554688 -70.57945312 246.53109375 -69.84765625 246.8046875 C-68.92855469 247.15789062 -68.00945313 247.51109375 -67.0625 247.875 C-66.14597656 248.22304688 -65.22945312 248.57109375 -64.28515625 248.9296875 C-62 250 -62 250 -61 252 C-59.22144796 252.94209017 -57.40149035 253.80713953 -55.5625 254.625 C-54.57378906 255.07101562 -53.58507812 255.51703125 -52.56640625 255.9765625 C-50.15086878 257.12347181 -50.15086878 257.12347181 -48 257 C-48 257.66 -48 258.32 -48 259 C-46.04350603 259.83764268 -44.08474444 260.66999059 -42.125 261.5 C-41.03445313 261.9640625 -39.94390625 262.428125 -38.8203125 262.90625 C-36.19338071 264.12052456 -36.19338071 264.12052456 -34 264 C-34 264.66 -34 265.32 -34 266 C-32.5437455 266.67119549 -31.08492133 267.33681807 -29.625 268 C-28.40683594 268.556875 -28.40683594 268.556875 -27.1640625 269.125 C-25.08001567 270.12495013 -25.08001567 270.12495013 -23 270 C-23 270.66 -23 271.32 -23 272 C-21.23244474 272.84026396 -19.46082737 273.67198722 -17.6875 274.5 C-16.70136719 274.9640625 -15.71523438 275.428125 -14.69921875 275.90625 C-12.02199874 277.18777472 -12.02199874 277.18777472 -9 277 C-9 277.66 -9 278.32 -9 279 C-7.5437455 279.67119549 -6.08492133 280.33681807 -4.625 281 C-3.40683594 281.556875 -3.40683594 281.556875 -2.1640625 282.125 C-0.08001567 283.12495013 -0.08001567 283.12495013 2 283 C2 283.66 2 284.32 2 285 C3.76755526 285.84026396 5.53917263 286.67198722 7.3125 287.5 C8.79169922 288.19609375 8.79169922 288.19609375 10.30078125 288.90625 C12.97800126 290.18777472 12.97800126 290.18777472 16 290 C16 290.66 16 291.32 16 292 C17.78953185 292.83790789 19.58169695 293.67019396 21.375 294.5 C22.37273437 294.9640625 23.37046875 295.428125 24.3984375 295.90625 C26.83692626 297.1291873 26.83692626 297.1291873 29 297 C29 297.66 29 298.32 29 299 C30.43429001 299.67354499 31.87257057 300.33859701 33.3125 301 C34.11300781 301.37125 34.91351562 301.7425 35.73828125 302.125 C38.06213959 303.18040667 38.06213959 303.18040667 41 303 C41 303.66 41 304.32 41 305 C42.65 305.33 44.3 305.66 46 306 C46.33 304.68 46.66 303.36 47 302 C47.66 302 48.32 302 49 302 C50.1734316 299.39869373 51.33892508 296.79431492 52.5 294.1875 C52.83386719 293.44951172 53.16773438 292.71152344 53.51171875 291.95117188 C53.82753906 291.23896484 54.14335938 290.52675781 54.46875 289.79296875 C54.76201172 289.1383667 55.05527344 288.48376465 55.35742188 287.80932617 C56.16733424 285.84883932 56.16733424 285.84883932 56 283 C56.66 283 57.32 283 58 283 C59.17133058 280.54379149 60.33721722 278.08525083 61.5 275.625 C62.00080078 274.57699219 62.00080078 274.57699219 62.51171875 273.5078125 C64.35209398 269.91172001 64.35209398 269.91172001 65 266 C65.66 266 66.32 266 67 266 C68.0067004 263.73192796 69.00551766 261.46092246 70 259.1875 C70.28617188 258.54490234 70.57234375 257.90230469 70.8671875 257.24023438 C72.13711041 254.32243531 73 252.21734286 73 249 C73.66 249 74.32 249 75 249 C76.17374173 246.56568361 77.33915763 244.12795818 78.5 241.6875 C78.83386719 240.99720703 79.16773438 240.30691406 79.51171875 239.59570312 C81.47293477 235.48011228 81.47293477 235.48011228 82 231 C82.66 231 83.32 231 84 231 C85.0044134 228.7101766 86.00367612 226.4183401 87 224.125 C87.28617188 223.47402344 87.57234375 222.82304687 87.8671875 222.15234375 C89.45925765 218.70361661 89.45925765 218.70361661 90 215 C90.66 215 91.32 215 92 215 C93.17374173 212.56568361 94.33915763 210.12795818 95.5 207.6875 C95.83386719 206.99720703 96.16773438 206.30691406 96.51171875 205.59570312 C98.47293477 201.48011228 98.47293477 201.48011228 99 197 C99.66 197 100.32 197 101 197 C102.0044134 194.7101766 103.00367612 192.4183401 104 190.125 C104.28617188 189.47402344 104.57234375 188.82304687 104.8671875 188.15234375 C106.45925765 184.70361661 106.45925765 184.70361661 107 181 C107.66 181 108.32 181 109 181 C110.17112946 178.37690901 111.33705964 175.75171858 112.5 173.125 C113.00080078 172.00544922 113.00080078 172.00544922 113.51171875 170.86328125 C113.82753906 170.14785156 114.14335938 169.43242187 114.46875 168.6953125 C114.76201172 168.03547363 115.05527344 167.37563477 115.35742188 166.69580078 C116.11811255 164.99053793 116.11811255 164.99053793 116 163 C116.66 163 117.32 163 118 163 C119.0044134 160.7101766 120.00367612 158.4183401 121 156.125 C121.28617188 155.47402344 121.57234375 154.82304687 121.8671875 154.15234375 C123.45925765 150.70361661 123.45925765 150.70361661 124 147 C124.66 147 125.32 147 126 147 C126.47050781 145.80761719 126.94101562 144.61523438 127.42578125 143.38671875 C128.05428457 141.82015078 128.68321308 140.25375336 129.3125 138.6875 C129.62123047 137.90181641 129.92996094 137.11613281 130.24804688 136.30664062 C130.55419922 135.54931641 130.86035156 134.79199219 131.17578125 134.01171875 C131.59210815 132.96697388 131.59210815 132.96697388 132.0168457 131.90112305 C133.0844354 129.83672748 134.34001182 128.60632477 136 127 C136.96911794 125.03446502 137.85948258 123.02901565 138.6875 121 C139.12449219 119.948125 139.56148437 118.89625 140.01171875 117.8125 C141.16575876 115.02512264 141.16575876 115.02512264 141 112 C141.66 112 142.32 112 143 112 C143.99 109.03 144.98 106.06 146 103 C143.18490007 100.7226499 143.18490007 100.7226499 140 101 C140 100.34 140 99.68 140 99 C138.21046815 98.16209211 136.41830305 97.32980604 134.625 96.5 C133.62726563 96.0359375 132.62953125 95.571875 131.6015625 95.09375 C129.16307374 93.8708127 129.16307374 93.8708127 127 94 C127 93.34 127 92.68 127 92 C125.56570999 91.32645501 124.12742943 90.66140299 122.6875 90 C121.88699219 89.62875 121.08648438 89.2575 120.26171875 88.875 C117.93786041 87.81959333 117.93786041 87.81959333 115 88 C115 87.34 115 86.68 115 86 C113.21046815 85.16209211 111.41830305 84.32980604 109.625 83.5 C108.62726563 83.0359375 107.62953125 82.571875 106.6015625 82.09375 C104.16307374 80.8708127 104.16307374 80.8708127 102 81 C102 80.34 102 79.68 102 79 C100.04350603 78.16235732 98.08474444 77.33000941 96.125 76.5 C95.03445313 76.0359375 93.94390625 75.571875 92.8203125 75.09375 C90.19338071 73.87947544 90.19338071 73.87947544 88 74 C88 73.34 88 72.68 88 72 C86.5437455 71.32880451 85.08492133 70.66318193 83.625 70 C82.81289063 69.62875 82.00078125 69.2575 81.1640625 68.875 C79.08001567 67.87504987 79.08001567 67.87504987 77 68 C77 67.34 77 66.68 77 66 C75.04350603 65.16235732 73.08474444 64.33000941 71.125 63.5 C70.03445313 63.0359375 68.94390625 62.571875 67.8203125 62.09375 C65.19338071 60.87947544 65.19338071 60.87947544 63 61 C63 60.34 63 59.68 63 59 C61.5437455 58.32880451 60.08492133 57.66318193 58.625 57 C57.81289063 56.62875 57.00078125 56.2575 56.1640625 55.875 C54.08001567 54.87504987 54.08001567 54.87504987 52 55 C52 54.34 52 53.68 52 53 C50.23244474 52.15973604 48.46082737 51.32801278 46.6875 50.5 C45.70136719 50.0359375 44.71523438 49.571875 43.69921875 49.09375 C41.02199874 47.81222528 41.02199874 47.81222528 38 48 C38 47.34 38 46.68 38 46 C36.21046815 45.16209211 34.41830305 44.32980604 32.625 43.5 C31.62726563 43.0359375 30.62953125 42.571875 29.6015625 42.09375 C27.16307374 40.8708127 27.16307374 40.8708127 25 41 C25 40.34 25 39.68 25 39 C23.56570999 38.32645501 22.12742943 37.66140299 20.6875 37 C19.88699219 36.62875 19.08648438 36.2575 18.26171875 35.875 C15.93786041 34.81959333 15.93786041 34.81959333 13 35 C13 34.34 13 33.68 13 33 C10.1628485 31.80404463 10.1628485 31.80404463 7 31 Z " fill="#070707" transform="translate(619,101)"/>
<path d="M0 0 C23.48594306 -0.52762199 46.61382465 0.98475128 70 3 C70 3.66 70 4.32 70 5 C70.91394531 5.02578125 71.82789063 5.0515625 72.76953125 5.078125 C86.65953708 5.62063387 100.28711144 7.81885192 114 10 C114 10.66 114 11.32 114 12 C114.58265625 12.03738281 115.1653125 12.07476563 115.765625 12.11328125 C122.7343058 12.67209056 129.26455965 14.15990547 136 16 C136 16.66 136 17.32 136 18 C137.051875 18.0825 138.10375 18.165 139.1875 18.25 C145.33308436 18.99189937 151.13999174 21.07941803 157 23 C157 23.66 157 24.32 157 25 C157.556875 25.10957031 158.11375 25.21914063 158.6875 25.33203125 C164.03341031 26.44275248 168.93063816 27.97225526 174 30 C174 30.66 174 31.32 174 32 C174.69867187 32.20496094 175.39734375 32.40992188 176.1171875 32.62109375 C177.02726563 32.89050781 177.93734375 33.15992188 178.875 33.4375 C179.77992188 33.70433594 180.68484375 33.97117187 181.6171875 34.24609375 C184 35 184 35 186 36 C186 36.66 186 37.32 186 38 C186.886875 38.268125 187.77375 38.53625 188.6875 38.8125 C191.7909666 39.9250635 194.31110685 41.10195778 197 43 C197 43.66 197 44.32 197 45 C197.7425 45.103125 198.485 45.20625 199.25 45.3125 C202.1973519 46.04933797 203.78383074 46.94799142 206 49 C206 49.66 206 50.32 206 51 C206.7425 51.226875 207.485 51.45375 208.25 51.6875 C211.55866205 53.26663416 212.79464426 55.1054706 215 58 C215.845625 58.66 216.69125 59.32 217.5625 60 C220.15871771 62.13022992 221.50581475 64.01162949 223 67 C223 67.66 223 68.32 223 69 C223.66 69 224.32 69 225 69 C229.67493222 79.16289613 230.32736116 89.25796365 227 100 C226.36234679 101.34744967 225.70304425 102.6854845 225 104 C224.34 104 223.68 104 223 104 C222.7525 104.556875 222.505 105.11375 222.25 105.6875 C219.81946311 110.18399325 218.20339831 112.57881059 213.25 114.3125 C212.1775 114.539375 211.105 114.76625 210 115 C210 115.66 210 116.32 210 117 C202.82059813 119.5732133 196.41883208 120.48299153 188.8125 120.375 C187.31771118 120.36629883 187.31771118 120.36629883 185.79272461 120.35742188 C177.57905744 120.21433355 169.93740731 119.10661047 162 117 C162 116.34 162 115.68 162 115 C161.30132813 114.79503906 160.60265625 114.59007812 159.8828125 114.37890625 C158.97273437 114.10949219 158.06265625 113.84007812 157.125 113.5625 C156.22007812 113.29566406 155.31515625 113.02882813 154.3828125 112.75390625 C152 112 152 112 150 111 C150 110.34 150 109.68 150 109 C149.39671875 108.80664062 148.7934375 108.61328125 148.171875 108.4140625 C146.97304688 108.02347656 146.97304688 108.02347656 145.75 107.625 C144.56664062 107.24214844 144.56664062 107.24214844 143.359375 106.8515625 C141.13372042 106.04826333 139.09068328 105.10288338 137 104 C137 103.34 137 102.68 137 102 C136.278125 101.731875 135.55625 101.46375 134.8125 101.1875 C132.00233617 100.00098638 129.51583443 98.72514361 127 97 C127 96.34 127 95.68 127 95 C125.576875 94.62875 125.576875 94.62875 124.125 94.25 C120.52201547 92.80880619 120.54203103 92.2896662 119 89 C116.6569191 87.87914688 116.6569191 87.87914688 114 87 C110.84780938 85.27380038 108.51957509 83.51957509 106 81 C105.195625 80.525625 104.39125 80.05125 103.5625 79.5625 C100.93732522 77.96178367 99.16444598 76.16444598 97 74 C96.13375 73.484375 95.2675 72.96875 94.375 72.4375 C92 71 92 71 90 68 C88.3459269 66.90000532 88.3459269 66.90000532 86.5 66 C83.57113911 64.5107487 82.94435842 63.91653763 81 61 C80.13375 60.484375 79.2675 59.96875 78.375 59.4375 C77.59125 58.963125 76.8075 58.48875 76 58 C76 57.34 76 56.68 76 56 C75.443125 55.731875 74.88625 55.46375 74.3125 55.1875 C71.78774666 53.89100504 69.36285516 52.57523677 67 51 C67 50.34 67 49.68 67 49 C66.4225 48.71125 65.845 48.4225 65.25 48.125 C64.5075 47.75375 63.765 47.3825 63 47 C62.34 46.71125 61.68 46.4225 61 46.125 C58.56948649 44.75783615 56.96838551 42.96838551 55 41 C54.0925 40.46375 53.185 39.9275 52.25 39.375 C51.5075 38.92125 50.765 38.4675 50 38 C50 37.34 50 36.68 50 36 C49.4225 35.71125 48.845 35.4225 48.25 35.125 C47.5075 34.75375 46.765 34.3825 46 34 C45.34 33.71125 44.68 33.4225 44 33.125 C41.56948649 31.75783615 39.96838551 29.96838551 38 28 C37.0925 27.46375 36.185 26.9275 35.25 26.375 C34.5075 25.92125 33.765 25.4675 33 25 C33 24.34 33 23.68 33 23 C32.154375 22.79375 31.30875 22.5875 30.4375 22.375 C26.72462944 20.88985177 24.58379653 19.10504784 21.66796875 16.453125 C19.60882674 14.65921206 17.35384662 13.3730772 15 12 C14.54625 11.525625 14.0925 11.05125 13.625 10.5625 C11.9540467 8.95581413 10.40006393 8.04881557 8.375 6.9375 C5 5 5 5 4 3 C1.98330173 1.86649466 1.98330173 1.86649466 0 1 C0 0.67 0 0.34 0 0 Z " fill="#FAFAFA" transform="translate(631,500)"/>
</svg>
