<?xml version="1.0" encoding="UTF-8" standalone="no"?>
<svg
   xmlns:dc="http://purl.org/dc/elements/1.1/"
   xmlns:cc="http://creativecommons.org/ns#"
   xmlns:rdf="http://www.w3.org/1999/02/22-rdf-syntax-ns#"
   xmlns:svg="http://www.w3.org/2000/svg"
   xmlns="http://www.w3.org/2000/svg"
   xmlns:sodipodi="http://sodipodi.sourceforge.net/DTD/sodipodi-0.dtd"
   xmlns:inkscape="http://www.inkscape.org/namespaces/inkscape"
   width="512pt"
   height="512pt"
   version="1.0"
   viewBox="0 0 512 512"
   preserveAspectRatio="xMinYMin meet"
   id="svg54"
   sodipodi:docname="tombola-splash-001.svg"
   inkscape:version="0.92.4 (5da689c313, 2019-01-14)">
  <defs
     id="defs58" />
  <sodipodi:namedview
     pagecolor="#ffffff"
     bordercolor="#666666"
     borderopacity="1"
     objecttolerance="10"
     gridtolerance="10"
     guidetolerance="10"
     inkscape:pageopacity="0"
     inkscape:pageshadow="2"
     inkscape:window-width="1653"
     inkscape:window-height="963"
     id="namedview56"
     showgrid="false"
     inkscape:zoom="0.69140625"
     inkscape:cx="194.14376"
     inkscape:cy="406.46472"
     inkscape:window-x="0"
     inkscape:window-y="0"
     inkscape:window-maximized="0"
     inkscape:current-layer="svg54" />
  <metadata
     id="metadata2">Created by potrace 1.15, written by Peter Selinger 2001-2017
<rdf:RDF>
  <cc:Work
     rdf:about="">
    <dc:format>image/svg+xml</dc:format>
    <dc:type
       rdf:resource="http://purl.org/dc/dcmitype/StillImage" />
    <dc:title></dc:title>
  </cc:Work>
</rdf:RDF>
</metadata>
  <path
     style="display:inline;opacity:1;fill:none;fill-opacity:1;stroke:#ffffff;stroke-width:1.12244427;stroke-miterlimit:4;stroke-dasharray:none;stroke-opacity:1"
     id="path8031"
     sodipodi:type="arc"
     sodipodi:cx="256"
     sodipodi:cy="256"
     sodipodi:rx="204.33476"
     sodipodi:ry="196.4897"
     sodipodi:start="6.2712975"
     sodipodi:end="6.2706647"
     d="M 460.32032,253.66422 A 204.33476,196.4897 0 0 1 258.46136,452.47544 204.33476,196.4897 0 0 1 51.680454,258.39794 204.33476,196.4897 0 0 1 253.47399,59.525314 204.33476,196.4897 0 0 1 460.31875,253.53989"
     sodipodi:open="true" />
  <rect
     x="1.0847381"
     y="0.66948396"
     width="512"
     height="512"
     id="rect4"
     style="fill:#006680;fill-opacity:1;stroke-width:0" />
  <flowRoot
     transform="translate(0,312)"
     fill="#000000"
     font-family="sans-serif"
     font-size="32px"
     letter-spacing="0px"
     stroke-width="1px"
     word-spacing="0px"
     style="line-height:125%"
     xml:space="preserve"
     id="flowRoot12"><flowRegion
       id="flowRegion8"><rect
         x="23.305"
         y="211.86"
         width="88.136"
         height="39.407"
         id="rect6" /></flowRegion><flowPara
       id="flowPara10" /></flowRoot>  <flowRoot
     transform="translate(0,312)"
     fill="#000000"
     font-family="sans-serif"
     font-size="32px"
     letter-spacing="0px"
     stroke-width="1px"
     word-spacing="0px"
     style="line-height:125%"
     xml:space="preserve"
     id="flowRoot20"><flowRegion
       id="flowRegion16"><rect
         x="9.322"
         y="187.71"
         width="170.34"
         height="80.508"
         id="rect14" /></flowRegion><flowPara
       id="flowPara18" /></flowRoot>  <flowRoot
     transform="translate(0,312)"
     fill="#000000"
     font-family="sans-serif"
     font-size="32px"
     letter-spacing="0px"
     stroke-width="1px"
     word-spacing="0px"
     style="line-height:125%"
     xml:space="preserve"
     id="flowRoot28"><flowRegion
       id="flowRegion24"><rect
         x="80.085"
         y="138.98"
         width="3.3898"
         height="57.627"
         id="rect22" /></flowRegion><flowPara
       id="flowPara26" /></flowRoot>  <flowRoot
     transform="translate(0,312)"
     fill="#000000"
     font-family="sans-serif"
     font-size="32px"
     letter-spacing="0px"
     stroke-width="1px"
     word-spacing="0px"
     style="line-height:125%"
     xml:space="preserve"
     id="flowRoot36"><flowRegion
       id="flowRegion32"><rect
         x="-43.702"
         y="193.41"
         width="329.58"
         height="176.78"
         id="rect30" /></flowRegion><flowPara
       id="flowPara34" /></flowRoot>  <path
     sodipodi:nodetypes="ccccccccccccccccc"
     inkscape:connector-curvature="0"
     id="path4191"
     d="m 171.70577,195.28671 c -16.78848,0.82882 -38.31832,-5.43362 -41.98467,-22.79795 -3.62907,-19.5606 16.23834,-35.52924 35.40491,-38.62132 36.01663,-6.31843 71.04042,10.49721 100.1827,28.47333 29.7538,17.57098 54.24603,41.81945 84.31991,58.8844 11.74452,5.51673 30.31183,7.33392 37.75795,-5.10157 6.95173,-12.77249 -9.90888,4.17492 -17.45559,-1.46972 -22.68245,-6.11956 -39.48894,-22.81949 -58.42364,-35.06975 -3.19023,-3.07667 -30.62935,-18.68083 -21.17286,-14.53792 27.82827,-0.0389 57.53718,-0.42145 82.6335,12.28015 13.6419,6.72604 22.34301,24.86897 13.32291,37.62026 -9.58665,11.39281 -26.36715,6.03221 -39.36986,4.69336 -7.42919,36.83769 -12.45801,72.35323 -13.1101,109.84015 -1.45654,10.98867 -28.56258,8.01878 -43.4367,7.35219 -43.3762,-2.24184 -87.61314,-5.76486 -129.2342,-17.8953 -15.60385,-2.02286 -14.8116,-9.52999 -9.2105,-27.47182 9.09322,-32.49816 14.49332,-62.99132 19.77624,-96.17849 z"
     style="fill:#ffffff;fill-opacity:0;stroke:none;stroke-width:2.06720877;stroke-linejoin:round;stroke-miterlimit:4;stroke-dasharray:none" />
  <path
     style="fill:#ffffff;fill-opacity:0;stroke:none;stroke-width:2.07382488"
     d="m 171.70364,163.11792 c 36.76253,-3.15139 75.19577,-2.71296 109.96182,10.19525 18.15615,13.79798 36.31231,27.59596 54.46846,41.39394 -39.3232,-13.06767 -80.56107,-21.15772 -122.34808,-22.12279 -14.00906,-0.5965 -28.03129,-0.86402 -42.05274,-1.0371 -0.37061,-9.4711 -0.1096,-18.95486 -0.0295,-28.4293 z"
     id="path4197"
     inkscape:connector-curvature="0" />
  <text
     transform="scale(0.72073738,1.3874679)"
     x="68.223442"
     y="48.796864"
     font-size="115.54px"
     letter-spacing="0px"
     word-spacing="0px"
     style="font-size:202.30725098px;line-height:125%;font-family:'Cooper Black';letter-spacing:0px;word-spacing:0px;fill:#fff6d5;fill-opacity:1;stroke:#000000;stroke-width:5.25297022;stroke-miterlimit:4;stroke-dasharray:none;stroke-opacity:1"
     xml:space="preserve"
     id="text42"><tspan
       x="68.223442"
       y="48.796864"
       id="tspan38"
       style="fill:#fff6d5;fill-opacity:1;stroke:#000000;stroke-width:5.25297022;stroke-miterlimit:4;stroke-dasharray:none;stroke-opacity:1" /><tspan
       x="68.223442"
       y="301.68304"
       id="tspan40"
       style="fill:#fff6d5;fill-opacity:1;stroke:#000000;stroke-width:5.25297022;stroke-miterlimit:4;stroke-dasharray:none;stroke-opacity:1">Draw</tspan></text>
  <text
     transform="scale(0.78894722,1.2675119)"
     x="62.969646"
     y="173.31116"
     font-size="69.404px"
     letter-spacing="0px"
     word-spacing="0px"
     style="font-size:121.05925751px;line-height:125%;font-family:'Cooper Black';letter-spacing:0px;word-spacing:0px;fill:#008080;stroke:#000000;stroke-width:5.23279953;stroke-miterlimit:4;stroke-dasharray:none;stroke-opacity:1"
     xml:space="preserve"
     id="text46"><tspan
       x="62.969646"
       y="173.31116"
       id="tspan44"
       style="fill:#aaeeff;stroke:#000000;stroke-width:5.23279953;stroke-miterlimit:4;stroke-dasharray:none;stroke-opacity:1">Tombola</tspan></text>
  <g
     transform="matrix(.15414 -.00028461 -.00031257 -.14035 -362.5 578.46)"
     fill="#fff"
     id="g52" />
</svg>
