<?xml version="1.0" encoding="UTF-8" standalone="no"?>
<svg
   xmlns:osb="http://www.openswatchbook.org/uri/2009/osb"
   xmlns:dc="http://purl.org/dc/elements/1.1/"
   xmlns:cc="http://creativecommons.org/ns#"
   xmlns:rdf="http://www.w3.org/1999/02/22-rdf-syntax-ns#"
   xmlns:svg="http://www.w3.org/2000/svg"
   xmlns="http://www.w3.org/2000/svg"
   xmlns:sodipodi="http://sodipodi.sourceforge.net/DTD/sodipodi-0.dtd"
   xmlns:inkscape="http://www.inkscape.org/namespaces/inkscape"
   version="1.1"
   x="0"
   y="0"
   width="512"
   height="512"
   viewBox="0 0 512 512"
   id="svg4167"
   inkscape:version="1.0.1 (3bc2e813f5, 2020-09-07)"
   sodipodi:docname="tophat-icon-teal.svg"
   inkscape:export-filename="F:\Users\Geir\OneDrive\Documents\Development\Progressive Web App\images\red-top-hat_sm.png"
   inkscape:export-xdpi="33.75"
   inkscape:export-ydpi="33.75">
  <metadata
     id="metadata4208">
    <rdf:RDF>
      <cc:Work
         rdf:about="">
        <dc:format>image/svg+xml</dc:format>
        <dc:type
           rdf:resource="http://purl.org/dc/dcmitype/StillImage" />
        <dc:title />
      </cc:Work>
    </rdf:RDF>
  </metadata>
  <sodipodi:namedview
     pagecolor="#dddddd"
     bordercolor="#666666"
     borderopacity="1"
     objecttolerance="10"
     gridtolerance="10"
     guidetolerance="10"
     inkscape:pageopacity="0.81568627"
     inkscape:pageshadow="2"
     inkscape:window-width="1254"
     inkscape:window-height="967"
     id="namedview4206"
     showgrid="false"
     inkscape:zoom="0.90509668"
     inkscape:cx="150.57535"
     inkscape:cy="284.03049"
     inkscape:window-x="477"
     inkscape:window-y="110"
     inkscape:window-maximized="0"
     inkscape:current-layer="svg4167"
     showguides="false"
     inkscape:document-rotation="0"
     inkscape:pagecheckerboard="false" />
  <defs
     id="defs4169">
    <linearGradient
       id="linearGradient8037"
       osb:paint="solid">
      <stop
         style="stop-color:#006680;stop-opacity:1;"
         offset="0"
         id="stop8035" />
    </linearGradient>
  </defs>
  <path
     inkscape:connector-curvature="0"
     id="rect4752"
     d="M 330.61736,262.59789 C 289.32193,246.34867 248.02651,230.09945 206.73107,213.85024 237.45469,152.26013 268.17834,90.669988 298.90199,29.079838 340.19741,45.329082 381.49286,61.57831 422.7883,77.827454 392.06471,139.41765 361.341,201.00774 330.61736,262.59789 Z"
     style="fill:#008080;fill-opacity:1;stroke:none;stroke-width:10.7327;stroke-miterlimit:4;stroke-dasharray:none;stroke-opacity:1" />
  <g
     id="path4384"
     transform="matrix(0.47248322,0,0,-0.45304617,14.268512,628.05268)"
     style="fill:#008080;fill-opacity:1;stroke:none">
    <path
       style="fill:#008080;fill-opacity:1;stroke:none"
       d="M 174.392,575.803 C 110.08436,572.53117 27.712749,596.98797 11.753299,667.91935 -3.9982544,746.22687 69.309901,812.19187 141.03918,824.77963 271.54936,850.07865 399.27499,786.05858 505.68928,716.78508 659.88358,612.85021 715.01783,555.04385 829.41571,474.49607 c 43.83043,-22.13706 113.12346,-29.42895 140.91231,20.47119 25.9438,51.25246 -36.97984,-16.75277 -65.14408,5.89758 -84.65071,24.55608 -147.37235,91.56824 -218.03647,140.72512 -11.90591,12.34583 -120.829,74.80737 -85.53747,58.18305 103.85485,0.15613 221.24876,1.84474 314.908,-49.12324 75.65126,-55.2531 83.3839,-99.79226 49.72095,-150.95963 C 930.46167,453.97398 867.837,475.48459 819.311,480.857 789.1883,328.52328 777.17518,246.82294 773.47672,91.638249 770.38424,40.099141 776.97268,21.070225 746.05715,15.398556 699.43848,6.8460365 617.82686,11.869329 569.79994,13.115355 410.82952,24.711815 256.10576,34.910039 105.70054,90.785167 71.202559,103.52655 78.192664,125.49449 101.43573,224.24114 c 27.87417,115.7949 45.40564,233.71664 62.06817,351.54586 3.62937,0.005 7.25873,0.0107 10.8881,0.016 z"
       id="path4189"
       inkscape:connector-curvature="0"
       sodipodi:nodetypes="cccccccccccccsccccc" />
    <path
       style="fill:#008080;fill-opacity:1;stroke:none;stroke-width:7.99971;stroke-linejoin:round;stroke-miterlimit:4;stroke-dasharray:none"
       d="M 165.40932,578.57989 C 102.75488,575.25405 22.405701,600.38348 8.7229203,670.06168 -4.8207133,748.55292 69.324267,812.63061 140.85373,825.03829 275.26745,850.39236 405.97589,782.91589 514.73459,710.78275 625.7755,640.27529 717.18028,542.97296 829.41571,474.49607 c 43.83043,-22.13706 113.12346,-29.42895 140.91231,20.47119 25.9438,51.25246 -36.97984,-16.75277 -65.14408,5.89758 -84.65071,24.55608 -147.37235,91.56824 -218.03647,140.72512 -11.90591,12.34583 -114.30846,74.96095 -79.01693,58.33663 103.85485,0.15613 214.72822,1.69116 308.38746,-49.27682 50.91142,-26.98972 83.3839,-99.79226 49.72095,-150.95963 C 930.46167,453.97398 867.837,475.48459 819.311,480.857 791.58534,333.03766 772.81782,190.52372 770.38424,40.099141 764.94845,-3.9953149 663.78896,7.9220367 608.27888,10.59686 446.39933,19.592752 281.30749,33.729661 125.97808,82.405725 67.744675,90.522882 70.701323,120.6469 91.604571,192.64247 125.5404,323.0485 145.69351,445.40904 165.40932,578.57989 Z"
       id="path4191"
       inkscape:connector-curvature="0"
       sodipodi:nodetypes="ccccccccccccccccc" />
  </g>
  <path
     style="fill:#ffffff;fill-opacity:0;stroke:none;stroke-width:3.71302"
     d="m 92.417887,307.44811 c 64.823473,-5.72906 132.592923,-4.93201 193.895993,18.53443 32.0148,25.08401 64.0296,50.16801 96.0444,75.25201 -69.33872,-23.75631 -142.05358,-38.46361 -215.73673,-40.21805 -24.70222,-1.08442 -49.42767,-1.57076 -74.151723,-1.8854 -0.65348,-17.21797 -0.19326,-34.45894 -0.052,-51.68299 z"
     id="path4197"
     inkscape:connector-curvature="0" />
  <g
     id="path4392"
     transform="matrix(0.47247115,0,0,-0.45592916,14.27447,630.45383)"
     style="fill:#008080;stroke:none">
    <path
       style="fill:#008080;stroke:none"
       d="M 317.303,810.831 C 429.74776,771.48339 529.12679,702.7938 624.45726,632.74355 708.03481,565.70944 780.93039,471.56533 890.38594,454.16008 c 75.95151,-2.78539 100.48228,75.2577 93.46792,110.57073 -6.5832,33.49935 -132.76044,-37.7419 -132.76044,-37.7419 C 740.73901,593.7477 644.11625,692.62278 522.74134,741.65704 456.6844,771.26446 387.30693,792.79175 317.303,810.831 Z"
       id="path4200"
       inkscape:connector-curvature="0"
       sodipodi:nodetypes="ccccccc" />
    <path
       style="fill:#008080;fill-opacity:0;stroke:none;stroke-width:8;stroke-linecap:round"
       d="M 317.303,810.831 C 429.74776,771.48339 529.12679,702.7938 624.45726,632.74355 704.16911,564.0574 780.15725,474.86941 889.6128,457.46416 c 78.07764,-12.90414 98.74272,69.26908 90.37536,97.35442 C 954.84961,509.84607 884.30224,501.72951 843.74859,526.5759 733.39418,593.33469 644.11625,692.62278 522.74134,741.65704 456.6844,771.26446 387.30693,792.79175 317.303,810.831 Z"
       id="path4202"
       inkscape:connector-curvature="0"
       sodipodi:nodetypes="ccccccc" />
  </g>
  <path
     style="opacity:0.58;fill:#d5fff6;fill-opacity:1;stroke:none;stroke-width:2.44422;stroke-miterlimit:4;stroke-dasharray:none;stroke-opacity:1"
     d="m 416.39156,390.18422 c -29.68378,-12.94909 -53.03994,-36.33729 -79.71945,-54.10871 -12.83913,-9.66088 -26.10845,-18.73757 -39.54997,-27.56172 46.51265,0.54466 95.47834,0.82512 138.31606,20.86798 20.15426,9.09636 41.99874,39.21546 22.59529,58.30411 -11.44154,10.06216 -28.46134,6.61743 -41.64193,2.49834 z"
     id="path4842"
     inkscape:connector-curvature="0" />
  <path
     style="fill:#002b22;fill-opacity:1;stroke:none;stroke-width:1.47187;stroke-miterlimit:4;stroke-dasharray:none;stroke-opacity:1"
     d="m 91.521367,367.19459 c 2.75467,-18.67271 2.93843,-38.05424 4.1064,-57.25816 61.274373,-5.6774 124.758113,-5.53868 183.532733,19.50959 26.17948,16.58861 42.30098,27.66018 68.51374,45.82918 10.47875,6.50333 70.85689,46.8277 48.22568,36.05688 L 354.79829,398.49205 C 265.11512,372.15158 158.51381,367.45397 91.521367,367.19459 Z"
     id="path8041"
     inkscape:connector-curvature="0"
     sodipodi:nodetypes="ccccccc" />
</svg>
