<?xml version="1.0" encoding="UTF-8" standalone="no"?><svg xmlns:dc="http://purl.org/dc/elements/1.1/" xmlns:cc="http://creativecommons.org/ns#" xmlns:rdf="http://www.w3.org/1999/02/22-rdf-syntax-ns#" xmlns:svg="http://www.w3.org/2000/svg" xmlns="http://www.w3.org/2000/svg" xmlns:sodipodi="http://sodipodi.sourceforge.net/DTD/sodipodi-0.dtd" xmlns:inkscape="http://www.inkscape.org/namespaces/inkscape" width="1080" height="1080" viewBox="0 0 285.74999 285.75001" version="1.1" id="svg77" inkscape:version="1.0.1 (3bc2e813f5, 2020-09-07)" sodipodi:docname="tombola-splash-002.svg"><defs id="defs71" /><sodipodi:namedview id="base" pagecolor="#ffffff" bordercolor="#666666" borderopacity="1.0" inkscape:pageopacity="0.0" inkscape:pageshadow="2" inkscape:zoom="0.49497475" inkscape:cx="626.61125" inkscape:cy="530.13502" inkscape:document-units="px" inkscape:current-layer="g275" inkscape:document-rotation="0" showgrid="false" units="px" inkscape:pagecheckerboard="true" showguides="false" inkscape:window-width="1261" inkscape:window-height="967" inkscape:window-x="122" inkscape:window-y="39" inkscape:window-maximized="0" /><metadata id="metadata74"><rdf:RDF><cc:Work rdf:about=""><dc:format>image/svg+xml</dc:format><dc:type rdf:resource="http://purl.org/dc/dcmitype/StillImage" /><dc:title /></cc:Work></rdf:RDF></metadata><g inkscape:label="Lag 1" inkscape:groupmode="layer" id="layer1"><rect style="display:inline;opacity:1;fill:#006680;fill-opacity:1;stroke:#006680;stroke-width:0.558713;stroke-miterlimit:4;stroke-dasharray:none;stroke-opacity:1" id="rect8033" width="286.82794" height="287.87625" x="0.21697414" y="-0.68514198" /><g id="g275" transform="translate(-9.827381,-30.238095)"><path style="display:inline;opacity:1;fill:none;fill-opacity:1;stroke:#ffffff;stroke-width:0.480943;stroke-miterlimit:4;stroke-dasharray:none;stroke-opacity:1" id="path8031-3" sodipodi:type="arc" sodipodi:cx="148.57822" sodipodi:cy="163.8506" sodipodi:rx="86.696083" sodipodi:ry="85.02327" sodipodi:start="6.2712975" sodipodi:end="6.2706647" d="M 235.26817,162.83988 A 86.696083,85.02327 0 0 1 149.62253,248.8677 86.696083,85.02327 0 0 1 61.88859,164.88822 86.696083,85.02327 0 0 1 147.50647,78.833828 86.696083,85.02327 0 0 1 235.2675,162.78609 l -86.68928,1.06451 z" sodipodi:arc-type="slice" /><rect style="display:inline;opacity:1;fill:#006680;fill-opacity:1;stroke:#006680;stroke-width:0.430327;stroke-miterlimit:4;stroke-dasharray:none;stroke-opacity:1" id="rect8033-2" width="218.92062" height="223.74867" x="43.242069" y="48.387573" /><path inkscape:connector-curvature="0" id="rect4752" d="m 172.70733,137.02757 c -10.34234,-4.76983 -20.68467,-9.53966 -31.02701,-14.30949 9.03088,-14.3299 18.06176,-28.659801 27.09265,-42.989708 10.34235,4.769839 20.68469,9.539669 31.02703,14.30949 -9.03088,14.329918 -18.06178,28.659818 -27.09267,42.989708 z" style="display:inline;opacity:1;fill:#ffcc00;fill-opacity:1;stroke:none;stroke-width:2.69105;stroke-miterlimit:4;stroke-dasharray:none;stroke-opacity:1" /><g id="path4384" transform="matrix(0.15223933,0,0,-0.14440072,75.087164,252.61582)" style="display:inline;fill:#ffffff;stroke:none"><path style="fill:#ffffff;stroke:none" d="M 174.392,575.803 C 110.08436,572.53117 27.712749,596.98797 11.753299,667.91935 -3.9982544,746.22687 69.309901,812.19187 141.03918,824.77963 271.54936,850.07865 399.27499,786.05858 505.68928,716.78508 659.88358,612.85021 715.01783,555.04385 829.41571,474.49607 c 43.83043,-22.13706 113.12346,-29.42895 140.91231,20.47119 25.9438,51.25246 -36.97984,-16.75277 -65.14408,5.89758 -84.65071,24.55608 -147.37235,91.56824 -218.03647,140.72512 -11.90591,12.34583 -120.829,74.80737 -85.53747,58.18305 103.85485,0.15613 221.24876,1.84474 314.908,-49.12324 75.65126,-55.2531 83.3839,-99.79226 49.72095,-150.95963 C 930.46167,453.97398 863.9714,476.31587 815.4454,481.68828 791.50766,326.86073 777.17518,246.82294 773.47672,91.638249 770.38424,40.099141 776.97268,21.070225 746.05715,15.398556 699.43848,6.8460365 617.82686,11.869329 569.79994,13.115355 410.82952,24.711815 256.10576,34.910039 105.70054,90.785167 61.92512,115.16441 75.100184,130.48215 101.43573,224.24114 c 27.87417,115.7949 45.40564,233.71664 62.06817,351.54586 3.62937,0.005 7.25873,0.0107 10.8881,0.016 z" id="path4189" inkscape:connector-curvature="0" sodipodi:nodetypes="cccccccccccccsccccc" /><path style="fill:#ffffff;fill-opacity:0;stroke:none;stroke-width:7.99971;stroke-linejoin:round;stroke-miterlimit:4;stroke-dasharray:none" d="M 165.40932,578.57989 C 102.75488,575.25405 22.405701,600.38348 8.7229203,670.06168 -4.8207133,748.55292 69.324267,812.63061 140.85373,825.03829 275.26745,850.39236 405.97589,782.91589 514.73459,710.78275 625.7755,640.27529 717.18028,542.97296 829.41571,474.49607 c 43.83043,-22.13706 113.12346,-29.42895 140.91231,20.47119 25.9438,51.25246 -36.97984,-16.75277 -65.14408,5.89758 -84.65071,24.55608 -147.37235,91.56824 -218.03647,140.72512 -11.90591,12.34583 -114.30846,74.96095 -79.01693,58.33663 103.85485,0.15613 214.72822,1.69116 308.38746,-49.27682 50.91142,-26.98972 83.3839,-99.79226 49.72095,-150.95963 C 930.46167,453.97398 867.837,475.48459 819.311,480.857 791.58534,333.03766 772.81782,190.52372 770.38424,40.099141 764.94845,-3.9953149 663.78896,7.9220367 608.27888,10.59686 446.39933,19.592752 281.30749,33.729661 125.97808,82.405725 67.744675,90.522882 70.701323,120.6469 91.604571,192.64247 125.5404,323.0485 145.69351,445.40904 165.40932,578.57989 Z" id="path4191-7" inkscape:connector-curvature="0" sodipodi:nodetypes="ccccccccccccccccc" /></g><path style="display:inline;fill:#ffffff;fill-opacity:0;stroke:none;stroke-width:1.18989" d="m 100.26777,151.29775 c 20.88683,-1.82604 42.72291,-1.57199 62.47545,5.90754 10.31552,7.99509 20.63105,15.99019 30.94656,23.98529 -22.3417,-7.57192 -45.77124,-12.25962 -69.51276,-12.81883 -7.95934,-0.34563 -15.92615,-0.50065 -23.89252,-0.60093 -0.21056,-5.48794 -0.0623,-10.98321 -0.0167,-16.47307 z" id="path4197-1" inkscape:connector-curvature="0" /><path style="display:inline;opacity:1;fill:#333333;fill-opacity:1;stroke:none;stroke-width:0.471686;stroke-miterlimit:4;stroke-dasharray:none;stroke-opacity:1" d="m 99.978904,169.47175 c 0.887576,-5.9516 0.946796,-12.12913 1.323126,-18.25005 19.74328,-1.80958 43.2778,-1.76536 62.21565,6.21835 10.73045,4.26702 13.55181,5.45518 21.99786,11.24623 6.31741,4.28176 15.20605,8.90497 14.22192,13.77415 -0.25396,1.25652 -0.0995,1.43033 -1.68441,1.07939 l -13.2434,-4.09253 c -28.89691,-8.39558 -63.24504,-9.89287 -84.830746,-9.97554 z" id="path8041" inkscape:connector-curvature="0" sodipodi:nodetypes="ccccsccc" /><g id="path4392" transform="matrix(0.15223545,0,0,-0.14531962,75.089081,253.38111)" style="display:inline;fill:#ffffff;stroke:none"><path style="fill:#ffffff;stroke:none" d="M 303.93318,816.12927 C 238.89055,831.48513 529.12679,702.7938 624.45726,632.74355 708.03481,565.70944 786.72894,474.4564 885.36053,456.22513 977.25991,445.59255 994.98784,510.98623 985.78671,555.6446 979.20351,589.14395 851.09342,526.98891 851.09342,526.98891 740.73901,593.7477 628.41091,704.44618 507.036,753.48044 c -93.93824,41.2891 -155.64592,53.99643 -203.10282,62.64883 z" id="path4200" inkscape:connector-curvature="0" sodipodi:nodetypes="ccccccc" /><path style="fill:#ffffff;fill-opacity:0;stroke:none;stroke-width:8;stroke-linecap:round" d="M 317.303,810.831 C 429.74776,771.48339 529.12679,702.7938 624.45726,632.74355 704.16911,564.0574 780.15725,474.86941 889.6128,457.46416 c 78.07764,-12.90414 98.74272,69.26908 90.37536,97.35442 C 954.84961,509.84607 884.30224,501.72951 843.74859,526.5759 733.39418,593.33469 644.11625,692.62278 522.74134,741.65704 456.6844,771.26446 387.30693,792.79175 317.303,810.831 Z" id="path4202" inkscape:connector-curvature="0" sodipodi:nodetypes="ccccccc" /></g><path style="display:inline;opacity:1;fill:#999999;fill-opacity:1;stroke:none;stroke-width:0.44321;stroke-miterlimit:4;stroke-dasharray:none;stroke-opacity:1" d="m 192.17235,166.81103 c -5.87466,-2.15134 -9.27019,-5.24066 -15.06147,-9.07803 -2.54098,-1.60504 -4.34919,-3.02455 -7.00937,-4.49057 9.20524,0.0905 17.36239,0.13708 25.84033,3.46697 3.98869,1.51126 7.18728,6.86914 4.47179,9.68656 -2.26438,1.67171 -5.63273,1.0994 -8.24128,0.41507 z" id="path4842" inkscape:connector-curvature="0" sodipodi:nodetypes="cccccc" /></g><path sodipodi:nodetypes="ccccccccccccccccc" inkscape:connector-curvature="0" id="path4191" d="m 104.73445,353.53409 c -5.92261,0.29239 -13.51786,-1.91686 -14.81126,-8.04261 -1.28026,-6.90055 5.72852,-12.53393 12.49006,-13.62475 12.70587,-2.229 25.06149,3.70319 35.34224,10.04476 10.49647,6.19865 19.13679,14.75297 29.74619,20.77311 4.1432,1.94618 10.69334,2.58724 13.32016,-1.79972 2.45242,-4.50585 -3.49563,1.47282 -6.15794,-0.51848 -8.00187,-2.15885 -13.93082,-8.05021 -20.61056,-12.37183 -1.12545,-1.08539 -10.80536,-6.59018 -7.46932,-5.12866 9.8172,-0.0137 20.29784,-0.14868 29.15127,4.33217 4.81255,2.37279 7.88211,8.77322 4.70002,13.27159 -3.38196,4.01913 -9.30174,2.12803 -13.88881,1.65571 -2.62085,12.99552 -4.39491,25.52461 -4.62495,38.74917 -0.51384,3.87655 -10.07625,2.82884 -15.32351,2.59369 -15.30216,-0.79088 -30.90797,-2.03372 -45.59095,-6.31307 -5.50469,-0.71362 -5.2252,-3.36197 -3.24926,-9.69145 3.20788,-11.46462 5.11292,-22.22193 6.97662,-33.92963 z" style="fill:#ffffff;fill-opacity:0;stroke:none;stroke-width:0.729266;stroke-linejoin:round;stroke-miterlimit:4;stroke-dasharray:none" /><path style="fill:#ffffff;fill-opacity:0;stroke:none;stroke-width:0.731597" d="m 104.73369,342.18565 c 12.96901,-1.11174 26.5274,-0.95707 38.79209,3.59666 6.40509,4.86762 12.81018,9.73524 19.21526,14.60286 -13.87234,-4.60998 -28.42015,-7.46397 -43.16168,-7.80442 -4.94208,-0.21044 -9.88882,-0.30481 -14.83527,-0.36587 -0.13075,-3.3412 -0.0387,-6.68685 -0.0104,-10.02923 z" id="path4197" inkscape:connector-curvature="0" /><g id="g282" transform="matrix(1.2957371,0,0,1.0391165,-32.382681,-179.18589)"><text transform="scale(0.72073739,1.3874679)" x="85.338943" y="222.36606" font-size="115.54px" letter-spacing="0px" word-spacing="0px" style="font-size:71.3695px;line-height:125%;font-family:'Cooper Black';letter-spacing:0px;word-spacing:0px;fill:#fff6d5;fill-opacity:1;stroke:#000000;stroke-width:1.85313;stroke-miterlimit:4;stroke-dasharray:none;stroke-opacity:1" xml:space="preserve" id="text42"><tspan x="85.338943" y="222.36606" id="tspan38" style="fill:#fff6d5;fill-opacity:1;stroke:#000000;stroke-width:1.85313;stroke-miterlimit:4;stroke-dasharray:none;stroke-opacity:1" /><tspan x="85.338943" y="311.57867" id="tspan40" style="fill:#fff6d5;fill-opacity:1;stroke:#000000;stroke-width:1.85313;stroke-miterlimit:4;stroke-dasharray:none;stroke-opacity:1">Draw</tspan></text><text transform="scale(0.78894723,1.2675119)" x="78.188202" y="285.70728" font-size="69.404px" letter-spacing="0px" word-spacing="0px" style="font-size:42.7069px;line-height:125%;font-family:'Cooper Black';letter-spacing:0px;word-spacing:0px;fill:#008080;stroke:#000000;stroke-width:1.84602;stroke-miterlimit:4;stroke-dasharray:none;stroke-opacity:1" xml:space="preserve" id="text46"><tspan x="78.188202" y="285.70728" id="tspan44" style="fill:#aaeeff;stroke:#000000;stroke-width:1.84602;stroke-miterlimit:4;stroke-dasharray:none;stroke-opacity:1">Tombola</tspan></text></g><path sodipodi:type="star" style="fill:#ffe680;fill-rule:evenodd;stroke-width:0.264583" id="path284" sodipodi:sides="5" sodipodi:cx="68.035712" sodipodi:cy="64.255955" sodipodi:r1="13.628125" sodipodi:r2="6.8140631" sodipodi:arg1="1.2315037" sodipodi:arg2="1.8598222" inkscape:flatsided="false" inkscape:rounded="0" inkscape:randomized="0" d="m 72.571428,77.107149 -6.47785,-6.319761 -8.87846,1.753527 4.008684,-8.113714 -4.411299,-7.902048 8.955353,1.30521 6.152127,-6.637262 1.526028,8.920379 8.213523,3.799994 -8.012215,4.207887 z" inkscape:transform-center-x="-1.2003051" inkscape:transform-center-y="-0.10583398" /><path sodipodi:type="star" style="fill:#ffe680;fill-rule:evenodd;stroke-width:0.264583" id="path284-2" sodipodi:sides="5" sodipodi:cx="88.002075" sodipodi:cy="68.141548" sodipodi:r1="13.628125" sodipodi:r2="6.8140631" sodipodi:arg1="1.2315037" sodipodi:arg2="1.8598222" inkscape:flatsided="false" inkscape:rounded="0" inkscape:randomized="0" d="m 92.53779,80.992738 -6.47785,-6.319761 -8.87846,1.753528 4.008684,-8.113714 -4.411299,-7.902048 8.955353,1.30521 6.152127,-6.637262 1.526028,8.920378 8.213527,3.799995 -8.012219,4.207887 z" inkscape:transform-center-x="-0.68490202" inkscape:transform-center-y="-0.029275832" transform="matrix(0.54768958,0.00681443,-0.00681443,0.54768958,68.627422,27.091822)" /><path sodipodi:type="star" style="fill:#ffe680;fill-rule:evenodd;stroke-width:0.264583" id="path284-23" sodipodi:sides="5" sodipodi:cx="149.99017" sodipodi:cy="35.635593" sodipodi:r1="13.628125" sodipodi:r2="6.8140631" sodipodi:arg1="1.2315037" sodipodi:arg2="1.8598222" inkscape:flatsided="false" inkscape:rounded="0" inkscape:randomized="0" d="m 154.52589,48.486784 -6.47785,-6.319761 -8.87846,1.753527 4.00868,-8.113714 -4.4113,-7.902048 8.95536,1.30521 6.15212,-6.637262 1.52603,8.920379 8.21352,3.799994 -8.01221,4.207887 z" inkscape:transform-center-x="0.30908834" inkscape:transform-center-y="1.0039033" transform="rotate(-120.35106,190.08642,20.304705)" /><path sodipodi:type="star" style="fill:#ffe680;fill-rule:evenodd;stroke-width:0.264583" id="path284-29" sodipodi:sides="5" sodipodi:cx="233.90089" sodipodi:cy="55.290356" sodipodi:r1="13.628125" sodipodi:r2="6.8140631" sodipodi:arg1="1.2315037" sodipodi:arg2="1.8598222" inkscape:flatsided="false" inkscape:rounded="0" inkscape:randomized="0" d="m 238.43661,68.141546 -6.47785,-6.319761 -8.87846,1.753528 4.00868,-8.113715 -4.4113,-7.902048 8.95536,1.30521 6.15212,-6.637262 1.52603,8.920379 8.21353,3.799994 -8.01222,4.207887 z" inkscape:transform-center-x="-0.28536738" inkscape:transform-center-y="-0.41206052" transform="matrix(0.08093854,-0.52331292,0.52331292,0.08093854,119.00891,140.40141)" /><path sodipodi:type="star" style="fill:#ffe680;fill-rule:evenodd;stroke-width:0.264583" id="path284-7" sodipodi:sides="5" sodipodi:cx="233.14493" sodipodi:cy="83.260597" sodipodi:r1="13.628125" sodipodi:r2="6.8140631" sodipodi:arg1="1.2315037" sodipodi:arg2="1.8598222" inkscape:flatsided="false" inkscape:rounded="0" inkscape:randomized="0" d="m 237.68064,96.111787 -6.47785,-6.319761 -8.87846,1.753528 4.00869,-8.113714 -4.4113,-7.902048 8.95535,1.30521 6.15213,-6.637262 1.52603,8.920378 8.21352,3.799995 -8.01222,4.207887 z" inkscape:transform-center-x="0.38985364" inkscape:transform-center-y="-0.61369156" transform="matrix(0.69871876,-0.3043439,0.3043439,0.69871876,31.971133,112.86762)" /><path sodipodi:type="star" style="fill:#ffe680;fill-rule:evenodd;stroke-width:0.264583" id="path284-8" sodipodi:sides="5" sodipodi:cx="246.75208" sodipodi:cy="120.30226" sodipodi:r1="13.628125" sodipodi:r2="6.8140631" sodipodi:arg1="1.2315037" sodipodi:arg2="1.8598222" inkscape:flatsided="false" inkscape:rounded="0" inkscape:randomized="0" d="m 251.28779,133.15345 -6.47785,-6.31976 -8.87846,1.75353 4.00868,-8.11372 -4.41129,-7.90204 8.95535,1.30521 6.15213,-6.63727 1.52602,8.92038 8.21353,3.8 -8.01222,4.20788 z" inkscape:transform-center-x="0.16422122" inkscape:transform-center-y="0.57278314" transform="matrix(0.51523892,0.2232007,-0.2232007,0.51523892,8.8313709,-87.549201)" /></g></svg>