<svg xmlns="http://www.w3.org/2000/svg" viewBox="0 0 512 512">
<rect width="512" height="512" rx="50" ry="50" fill="white"/>
<path d="M63.690 0L63.690 0Q59.400 0 59.400-4.620L59.400-4.620Q59.400-9.570 63.690-9.570L63.690-9.570Q82.170-9.570 88.440-14.850Q94.710-20.130 94.710-29.700L94.710-29.700L94.710-222.420Q94.710-229.350 87.780-229.350L87.780-229.350L67.980-229.350Q55.440-229.350 46.530-223.575Q37.620-217.800 31.680-209.055Q25.740-200.310 22.110-191.730Q18.480-183.150 16.500-177.210L16.500-177.210Q15.840-175.230 14.520-174.900Q13.200-174.570 10.890-174.900L10.890-174.900Q10.560-174.900 10.230-174.900L10.230-174.900Q8.250-175.230 7.920-176.385Q7.590-177.540 7.590-178.860L7.590-178.860Q7.590-180.180 7.920-187.440Q8.250-194.700 8.745-203.940Q9.240-213.180 9.570-221.100Q9.900-229.020 9.900-231.990L9.900-231.990Q9.900-239.580 18.480-239.580L18.480-239.580Q20.130-239.580 32.670-239.250Q45.210-238.920 66.495-238.755Q87.780-238.590 115.500-238.590L115.500-238.590Q143.220-238.590 164.505-238.755Q185.790-238.920 198.660-239.250Q211.530-239.580 213.180-239.580L213.180-239.580Q221.100-239.580 221.430-231.660L221.430-231.660Q221.430-229.350 221.925-221.595Q222.420-213.840 222.750-204.435Q223.080-195.030 223.410-187.605Q223.740-180.180 223.740-178.860L223.740-178.860Q223.740-176.880 223.410-176.055Q223.080-175.230 220.440-174.900L220.440-174.900Q220.110-174.900 219.450-174.570L219.450-174.570Q218.130-174.570 217.140-174.735Q216.150-174.900 214.830-177.540L214.830-177.540Q212.190-183.150 208.395-191.730Q204.600-200.310 198.825-208.890Q193.050-217.470 184.470-223.410Q175.890-229.350 163.350-229.350L163.350-229.350L141.570-229.350Q138.600-229.350 136.455-228.195Q134.310-227.040 134.310-222.420L134.310-222.420L134.310-29.700Q134.310-24.090 136.125-19.470Q137.940-14.850 144.375-12.210Q150.810-9.570 164.340-9.570L164.340-9.570Q169.290-9.570 169.290-4.620L169.290-4.620Q169.290 0 164.340 0L164.340 0Q161.040 0 148.005-0.495Q134.970-0.990 114.510-0.990L114.510-0.990Q94.050-0.990 80.685-0.495Q67.320 0 63.690 0ZM246.180 0L246.180 0Q241.560 0 241.560-4.620L241.560-4.620Q241.560-9.240 246.180-9.240L246.180-9.240Q263.340-9.240 269.280-14.355Q275.220-19.470 275.220-29.370L275.220-29.370L275.220-210.540Q275.220-220.110 269.610-225.225Q264-230.340 245.520-230.340L245.520-230.340Q241.230-230.340 241.230-234.960L241.230-234.960Q241.230-239.580 245.520-239.580L245.520-239.580Q248.490-239.580 262.515-239.085Q276.540-238.590 295.350-238.590L295.350-238.590Q317.130-238.590 329.835-239.085Q342.540-239.580 349.140-239.580L349.140-239.580Q369.930-239.580 389.730-233.145Q409.530-226.710 425.370-212.520Q441.210-198.330 450.615-175.395Q460.020-152.460 460.020-119.460L460.020-119.460Q460.020-87.780 450.615-65.010Q441.210-42.240 425.205-27.885Q409.200-13.530 389.565-6.765Q369.930 0 349.140 0L349.140 0Q342.540 0 329.670-0.330Q316.800-0.660 294.690-0.660L294.690-0.660Q276.210-0.660 262.845-0.330Q249.480 0 246.180 0ZM322.080-10.230L322.080-10.230L341.550-10.230Q355.080-10.230 367.950-15.345Q380.820-20.460 391.380-32.835Q401.940-45.210 408.210-66.330Q414.480-87.450 414.480-119.460L414.480-119.460Q414.480-152.790 409.035-174.240Q403.590-195.690 394.020-207.735Q384.450-219.780 372.405-224.565Q360.360-229.350 347.160-229.350L347.160-229.350L322.080-229.350Q319.770-229.350 317.625-228.195Q315.480-227.040 315.480-222.420L315.480-222.420L315.480-16.830Q315.480-9.570 322.080-10.230Z" fill="#006680" transform="translate(22.195003509521484, 375.79000091552734)"/>
</svg>