<?xml version='1.0' encoding='UTF-8'?>
<svg xmlns:sodipodi="http://sodipodi.sourceforge.net/DTD/sodipodi-0.dtd" xmlns="http://www.w3.org/2000/svg" xmlns:rdf="http://www.w3.org/1999/02/22-rdf-syntax-ns#" xmlns:cc="http://creativecommons.org/ns#" xmlns:dc="http://purl.org/dc/elements/1.1/" version="1.1" x="0" y="0" width="512" height="512" viewBox="0 0 512 512" id="svg4167">
  <metadata id="metadata4208">
    <rdf:RDF>
      <cc:Work>
        <dc:format>image/svg+xml</dc:format>
        <dc:type/>
      </cc:Work>
    </rdf:RDF>
  </metadata>
  <sodipodi:namedview pagecolor="#ffffff" bordercolor="#666666" borderopacity="1" objecttolerance="10" gridtolerance="10" guidetolerance="10" id="namedview4206" showgrid="false" showguides="true"/>
  <defs id="defs4169"/>
  <g id="Top_Hat" transform="matrix(0.57788343,0,0,-0.56646551,183.83446,424.48143)" style="display:inline">
    <rect style="opacity:1;fill:#006680;fill-opacity:1;stroke:#006680;stroke-width:1.74781;stroke-miterlimit:4;stroke-dasharray:none;stroke-opacity:1" id="rect8033" width="889.03271" height="908.90283" x="-316.17639" y="-748.34656" transform="scale(1,-1)"/>
    <g id="path4392" transform="matrix(0.61822543,0,0,0.59031154,-182.79045,-44.374265)" style="fill:#ffffff;stroke:none;stroke-width:2.8932;stroke-dasharray:none;stroke-opacity:1">
      <path style="display:inline;fill:#ffffff;stroke:none;stroke-width:2.89321;stroke-dasharray:none;stroke-opacity:1" d="M 192.58342,577.42848 C 104.21969,532.12327 26.219514,591.47047 10.259611,661.95332 1.0679095,751.44738 87.498653,812.32256 159.22974,824.83073 c 254.21587,28.44313 469.87897,-129.85942 451.25105,-117.2239 0.52619,-0.51759 -2.70706,0.85762 94.3769,14.48425 83.75584,5.11126 136.20904,-8.07917 208.22276,-47.16058 C 1057.3986,606.16283 1068.0332,358.15067 835.38705,481.28907 820.72637,413.34659 795.38197,250.52865 791.68342,96.325258 788.59085,45.112057 795.17947,26.203451 764.26315,20.56765 717.64328,12.06921 636.02959,17.060746 588.00146,18.298889 429.02699,29.822013 274.29927,39.955752 123.89021,95.47756 c -43.776537,24.22508 -30.601126,39.44597 -4.26491,132.61209 27.87486,115.06271 45.40679,232.23878 62.06975,349.32294 3.62946,0.005 7.25891,0.0107 10.88837,0.0159 z" id="path4189"/>
      <path style="display:inline;opacity:1;fill:#333333;fill-opacity:1;stroke:none;stroke-width:2.89321;stroke-miterlimit:4;stroke-dasharray:none;stroke-opacity:1;paint-order:fill markers stroke" d="m 181.69506,577.4126 c 5.83034,40.95528 6.21928,83.46526 8.69134,125.58566 129.68913,12.45239 306.14975,0.46643 408.68041,-42.79084 66.11235,-31.69937 78.61553,-38.5069 116.07091,-77.38965 41.49767,-29.46442 57.72794,-63.81905 99.42756,-90.86158 23.55481,-15.27548 19.15996,-10.25405 19.15996,-10.25405 l -94.7963,27.06502 C 549.11168,566.54033 323.48668,576.8437 181.69506,577.4126 Z" id="path8041"/>
      <path style="display:inline;opacity:1;fill:#999999;fill-opacity:1;stroke:none;stroke-width:2.89321;stroke-miterlimit:4;stroke-dasharray:none;stroke-opacity:1" d="m 787.33916,612.90409 c -37.88443,11.43633 -59.78141,27.8588 -97.12813,48.25791 -16.38615,8.53227 -28.04688,16.0782 -45.20185,23.87147 59.36256,-0.48101 111.9662,-0.7287 166.63857,-18.43008 25.72222,-8.0337 44.80289,-39.81977 27.29134,-54.79689 -14.60246,-8.88668 -34.778,-2.54028 -51.59993,1.09759 z" id="path4842"/>
      <path id="rect4752" d="m 607.07342,818.84589 c -55.00404,27.0471 -110.00801,54.09417 -165.01202,81.14122 48.02922,81.25696 96.05848,162.51389 144.08776,243.77089 55.004,-27.0471 110.00801,-54.0942 165.01205,-81.1412 C 703.13197,981.35981 655.10268,900.10289 607.07342,818.84589 Z" style="display:inline;opacity:1;fill:#ffffff;fill-opacity:1;stroke:none;stroke-width:2.36318;stroke-miterlimit:4;stroke-dasharray:none;stroke-opacity:1"/>
    </g>
  </g>
</svg>
