<?xml version="1.0" encoding="UTF-8" standalone="no"?>
<svg
   version="1.1"
   x="0"
   y="0"
   width="512"
   height="512"
   viewBox="0 0 512 512"
   id="svg4167"
   inkscape:version="1.3.2 (091e20e, 2023-11-25, custom)"
   sodipodi:docname="tombola-draw-207.svg"
   inkscape:export-filename="F:\Users\Geir\OneDrive\Documents\Development\Progressive Web App\images\red-top-hat_sm.png"
   inkscape:export-xdpi="33.75"
   inkscape:export-ydpi="33.75"
   xmlns:inkscape="http://www.inkscape.org/namespaces/inkscape"
   xmlns:sodipodi="http://sodipodi.sourceforge.net/DTD/sodipodi-0.dtd"
   xmlns="http://www.w3.org/2000/svg"
   xmlns:svg="http://www.w3.org/2000/svg"
   xmlns:rdf="http://www.w3.org/1999/02/22-rdf-syntax-ns#"
   xmlns:cc="http://creativecommons.org/ns#"
   xmlns:dc="http://purl.org/dc/elements/1.1/">
  <metadata
     id="metadata4208">
    <rdf:RDF>
      <cc:Work
         rdf:about="">
        <dc:format>image/svg+xml</dc:format>
        <dc:type
           rdf:resource="http://purl.org/dc/dcmitype/StillImage" />
        <dc:title />
      </cc:Work>
    </rdf:RDF>
  </metadata>
  <sodipodi:namedview
     pagecolor="#ffffff"
     bordercolor="#666666"
     borderopacity="1"
     objecttolerance="10"
     gridtolerance="10"
     guidetolerance="10"
     inkscape:pageopacity="0"
     inkscape:pageshadow="2"
     inkscape:window-width="1637"
     inkscape:window-height="1161"
     id="namedview4206"
     showgrid="false"
     inkscape:zoom="1.28"
     inkscape:cx="270.70313"
     inkscape:cy="279.29688"
     inkscape:window-x="215"
     inkscape:window-y="7"
     inkscape:window-maximized="0"
     inkscape:current-layer="svg4167"
     showguides="false"
     inkscape:document-rotation="0"
     inkscape:showpageshadow="2"
     inkscape:pagecheckerboard="0"
     inkscape:deskcolor="#d1d1d1" />
  <defs
     id="defs4169" />
  <g
     id="Top_Hat"
     transform="matrix(0.57788343,0,0,-0.56646551,183.83446,424.48143)"
     style="display:inline">
    <rect
       style="opacity:1;fill:#006680;fill-opacity:1;stroke:#006680;stroke-width:1.74781;stroke-miterlimit:4;stroke-dasharray:none;stroke-opacity:1"
       id="rect8033"
       width="889.03271"
       height="908.90283"
       x="-316.17639"
       y="-748.34656"
       transform="scale(1,-1)" />
    <g
       id="path4392"
       transform="matrix(0.61822543,0,0,0.59031154,-186.8462,-84.37008)"
       style="fill:#ffffff;stroke:none;stroke-width:2.89320411;stroke-dasharray:none;stroke-opacity:1">
      <path
         style="display:inline;fill:#ffffff;stroke:none;stroke-width:2.90235807;stroke-dasharray:none;stroke-opacity:1"
         d="M 174.392,575.803 C 110.08436,572.53117 27.712749,596.98797 11.753299,667.91935 -3.9982544,746.22687 69.309901,812.19187 141.03918,824.77963 271.54936,850.07865 399.27499,786.05858 505.68928,716.78508 659.88358,612.85021 715.01783,555.04385 829.41571,474.49607 c 43.83043,-22.13706 113.12346,-29.42895 140.91231,20.47119 25.9438,51.25246 -36.97984,-16.75277 -65.14408,5.89758 -84.65071,24.55608 -147.37235,91.56824 -218.03647,140.72512 -11.90591,12.34583 -120.829,74.80737 -85.53747,58.18305 103.85485,0.15613 221.24876,1.84474 314.908,-49.12324 75.65126,-55.2531 83.3839,-99.79226 49.72095,-150.95963 C 930.46167,453.97398 863.9714,476.31587 815.4454,481.68828 791.50766,326.86073 777.17518,246.82294 773.47672,91.638249 770.38424,40.099141 776.97268,21.070225 746.05715,15.398556 699.43848,6.8460365 617.82686,11.869329 569.79994,13.115355 410.82952,24.711815 256.10576,34.910039 105.70054,90.785167 61.92512,115.16441 75.100184,130.48215 101.43573,224.24114 c 27.87417,115.7949 45.40564,233.71664 62.06817,351.54586 3.62937,0.005 7.25873,0.0107 10.8881,0.016 z"
         id="path4189"
         inkscape:connector-curvature="0"
         sodipodi:nodetypes="cccccccccccccsccccc"
         transform="matrix(1.0000255,0,0,0.99367666,-0.01261556,5.2664754)" />
      <path
         style="display:inline;opacity:1;fill:#333333;fill-opacity:1;stroke:none;stroke-width:1.74780567;stroke-miterlimit:4;stroke-dasharray:none;stroke-opacity:1;paint-order:fill markers stroke"
         d="m -85.769143,256.48324 c 3.604465,24.17637 3.844917,49.2705 5.373209,74.13466 80.17712491,7.35078 175.750401,7.17117 252.656624,-25.25993 43.57618,-17.33333 55.03367,-22.1598 89.3329,-45.68401 25.65492,-17.39318 61.75153,-36.17341 57.755,-55.95278 -1.03132,-5.10417 -0.4045,-5.81022 -6.84036,-4.38469 l -53.78121,16.62454 C 141.37716,250.06521 1.8900429,256.14741 -85.769143,256.48324 Z"
         id="path8041"
         inkscape:connector-curvature="0"
         sodipodi:nodetypes="ccccsccc"
         transform="matrix(1.6175329,0,0,1.6940208,302.22988,142.92467)" />
      <path
         style="fill:#ffffff;stroke:none;stroke-width:2.89320411;stroke-dasharray:none;stroke-opacity:1"
         d="M 303.93318,816.12927 C 238.89055,831.48513 529.12679,702.7938 624.45726,632.74355 708.03481,565.70944 786.72894,474.4564 885.36053,456.22513 977.25991,445.59255 994.98784,510.98623 985.78671,555.6446 979.20351,589.14395 851.09342,526.98891 851.09342,526.98891 740.73901,593.7477 628.41091,704.44618 507.036,753.48044 c -93.93824,41.2891 -155.64592,53.99643 -203.10282,62.64883 z"
         id="path4200"
         inkscape:connector-curvature="0"
         sodipodi:nodetypes="ccccccc" />
      <path
         style="display:inline;opacity:1;fill:#999999;fill-opacity:1;stroke:none;stroke-width:1.74780567;stroke-miterlimit:4;stroke-dasharray:none;stroke-opacity:1"
         d="m 288.65545,277.43427 c -23.42112,6.751 -36.95839,16.44537 -60.04708,28.4872 -10.13034,5.03669 -17.3393,9.49115 -27.94493,14.09161 36.69944,-0.28396 69.22035,-0.43017 103.0202,-10.8795 15.90213,-4.74238 28.65424,-21.55563 17.82815,-30.3968 -9.02761,-5.2459 -22.45659,-3.44999 -32.85634,-1.30251 z"
         id="path4842"
         inkscape:connector-curvature="0"
         sodipodi:nodetypes="cccccc"
         transform="matrix(1.6175329,0,0,1.6940208,302.22988,142.92467)" />
      <path
         inkscape:connector-curvature="0"
         id="rect4752"
         d="m 209.57972,388.27669 c -42.00008,19.37583 -84.00011,38.75164 -126.000165,58.12744 36.674235,58.21035 73.348505,116.42072 110.022785,174.6311 42.00005,-19.37584 84.00011,-38.75167 126.00019,-58.12741 C 282.92828,504.69739 246.25399,446.48707 209.57972,388.27669 Z"
         style="display:inline;opacity:1;fill:#ffffff;fill-opacity:1;stroke:none;stroke-width:1.74780567;stroke-miterlimit:4;stroke-dasharray:none;stroke-opacity:1"
         transform="matrix(1.6175329,0,0,1.6940208,302.22988,142.92467)" />
    </g>
  </g>
</svg>
