<svg xmlns="http://www.w3.org/2000/svg" viewBox="0 0 512 512"><rect width="512" height="512" rx="50" ry="50" fill="#006680"/><path d="M64.680-160.440L64.680-160.440Q50.820-160.440 40.950-167.370Q31.080-174.300 26.250-186.480Q21.420-198.660 21.420-214.200L21.420-214.200Q21.840-233.520 31.710-252.210Q41.580-270.900 62.160-283.080Q82.740-295.260 114.660-295.260L114.660-295.260Q138.180-295.260 158.760-291.900Q179.340-288.540 198.660-284.970Q217.980-281.400 237.300-281.400L237.300-281.400Q254.100-281.400 267.330-284.340Q280.560-287.280 291.900-298.200L291.900-298.200Q296.520-294.420 299.250-287.700Q301.980-280.980 301.980-273.420L301.980-273.420Q301.980-263.340 297.360-254.100Q292.740-244.860 283.080-238.560Q273.420-232.260 257.460-232.260L257.460-232.260Q241.500-232.260 227.220-236.880Q212.940-241.500 199.080-248.430Q185.220-255.360 169.680-262.500L169.680-262.500L169.260-264.600Q158.340-268.800 149.100-270.480Q139.860-272.160 128.940-272.160L128.940-272.160Q105.420-272.160 91.350-257.040Q77.280-241.920 76.860-213.780L76.860-213.780Q76.860-201.600 79.380-190.470Q81.900-179.340 87.780-167.580L87.780-167.580Q82.740-163.800 76.230-162.120Q69.720-160.440 64.680-160.440ZM115.080 8.820L115.080 8.820Q105 8.820 96.390 5.250Q87.780 1.680 86.100-4.620L86.100-4.620Q91.560-7.980 95.130-13.020Q98.700-18.060 101.220-26.040Q103.740-34.020 106.260-46.200L106.260-46.200L136.920-205.800Q143.220-238.140 159.600-254.730Q175.980-271.320 208.740-273L208.740-273L163.800-39.900Q160.440-23.100 154.770-12.180Q149.100-1.260 139.440 3.780Q129.780 8.820 115.080 8.820ZM291.060 8.400L291.060 8.400Q269.220 8.400 255.360-1.890Q241.500-12.180 234.990-30.240Q228.480-48.300 228.480-71.820L228.480-71.820Q228.480-103.320 237.510-130.620Q246.540-157.920 262.500-178.710Q278.460-199.500 300.300-211.050Q322.140-222.600 347.760-222.600L347.760-222.600Q359.100-222.600 369.390-220.500Q379.680-218.400 389.760-214.620L389.760-214.620L437.640-206.220Q430.500-168 422.940-128.730Q415.380-89.460 406.980-48.300L406.980-48.300Q406.560-44.940 405.720-39.900Q404.880-34.860 404.880-30.660L404.880-30.660Q404.880-23.940 408.240-19.530Q411.600-15.120 419.160-14.280L419.160-14.280Q417.060-6.720 411.180-1.680Q405.300 3.360 397.950 5.880Q390.600 8.400 382.620 8.400L382.620 8.400Q370.440 8.400 361.620 2.310Q352.800-3.780 350.700-15.540L350.700-15.540Q339.780-5.040 324.660 1.680Q309.540 8.400 291.060 8.400ZM311.640-17.220L311.640-17.220Q325.920-17.220 335.370-27.300Q344.820-37.380 350.070-52.290Q355.320-67.200 357.840-80.640L357.840-80.640L377.160-185.640Q369.600-191.520 361.410-194.460Q353.220-197.400 346.080-197.400L346.080-197.400Q333.480-197.400 323.610-189.210Q313.740-181.020 306.390-166.950Q299.040-152.880 294.210-134.820Q289.380-116.760 287.070-97.440Q284.760-78.120 284.760-59.640L284.760-59.640Q284.760-42.420 290.220-29.820Q295.680-17.220 311.640-17.220ZM436.800-202.020L436.800-202.020L381.780-205.380Q386.400-228.480 389.550-250.740Q392.700-273 392.700-289.800L392.700-289.800Q392.700-295.260 392.490-300.090Q392.280-304.920 391.440-309.540L391.440-309.540Q396.480-312.480 404.250-314.580Q412.020-316.680 419.580-316.680L419.580-316.680Q431.760-316.680 441.840-309.750Q451.920-302.820 451.500-285.180L451.500-285.180Q451.500-280.140 449.400-267.120Q447.300-254.100 443.940-236.880Q440.580-219.660 436.800-202.020Z" fill="#fff9f9" transform="translate(19.531599044799805, 409.9299774169922)"/></svg>